/* XPM */
static char *result[] = {
/* columns rows colors chars-per-pixel */
"64 64 75 1 ",
"  c black",
". c #010000",
"X c #010001",
"o c #010101",
"O c #020101",
"+ c #021218",
"@ c #051319",
"# c #021C25",
"$ c #031D26",
"% c #081F27",
"& c #03212C",
"* c #05222D",
"= c #052A36",
"- c #052C38",
"; c #0C2E39",
": c #654A04",
"> c #644A05",
", c #053342",
"< c #043443",
"1 c #053443",
"2 c #0A3544",
"3 c #083847",
"4 c #083949",
"5 c #083A49",
"6 c #09495D",
"7 c #094A5E",
"8 c #0F4B5F",
"9 c #0E5D76",
"0 c #0E5E77",
"q c #0E5F78",
"w c #656564",
"e c #656565",
"r c #916D09",
"t c #906D0B",
"y c #A97F05",
"u c #AA7F05",
"i c #A97F07",
"p c #C6970C",
"a c #C5960F",
"s c #ECB30B",
"d c #EBB30F",
"f c #FDC006",
"g c #FDC007",
"h c #FDC008",
"j c #FDC009",
"k c #FCC00A",
"l c #FCC00B",
"z c #FCC00C",
"x c #FDC00C",
"c c #FDC00D",
"v c #FCC00E",
"b c #FCCA63",
"n c #FBC964",
"m c #939291",
"M c #929292",
"N c #AAAAA8",
"B c #AAAAAA",
"V c #FCDCA7",
"C c #FBDCA8",
"Z c #C8C8C7",
"A c #C8C8C8",
"S c #D8D8D8",
"D c gray85",
"F c #FDE7C2",
"G c #FDE7C3",
"H c #FDE7C4",
"J c #FCEDD7",
"K c #FCEED7",
"L c #FDF7E8",
"P c #FDF6EA",
"I c #FDF7EB",
"U c #FEFEFB",
"Y c #FEFEFC",
"T c #FEFEFD",
"R c #FEFEFE",
/* pixels */
"qqqqqqqqqqqqqqqqqqqqqqqqqqq053350qqqqqqqqqqqqqqqqqqqqqqqqqq05333",
"qqqqqqqqqqqqqqqqqqqqqqqqqqq053350qqqqqqqqqqqqqqqqqqqqqqqqqq05333",
"qqqqqqqqqqqqqqqqqqqqqqqqqqq053350qqqqqqqqqqqqqqqqqqqqqqqqqq05333",
"qqqqqqqqqqqqqqqqqqqqqqqqqqq053350qqqqqqqqqqqqqqqqqqqqqqqqqq05333",
"qqqqqqqqqqqqqqqqqqqqqqqqqqq053350qqqqqqqqqqqqqqqqqqqqqqqqqq05333",
"qqqqqqqqqqqqqqqqqqqqqqqqqqq053350qqqqqqqqqqqqqqqqqqqqqqqqqq05333",
"qqqqqqqqqqqqqqqqqqqqqqqqqqq053350qqqqqqqqqqqqqqqqqqqqqqqqqq05333",
"qqqqqqqqqqqqqqqqqqqqqqqqqqq053350qqqqqqqqqqqqqqqqqqqqqqqqqq05333",
"qqqqqqqqqqqqqqqqqqqqqqqqqqq053350qqqqqqqqqqqqqqqqqqqqqqqqqq05333",
"qqqqqqqqqqqqqqqqqqqqqqqqqqq053350qqqqqqqqqqqqqqqqqqqqqqqqqq05333",
"qqqqqqqqqqqqqqqqqqqqqqqqqqq053350qqqqqqqqqqqqqqqqqqqqqqqqqq05333",
"0000000000000000000000000009433490000000000000000000000000094333",
"5555555555555555555555555554333345555555555555555555555555543333",
"3333333333333333333333333333333333333333333333333333333333333333",
"3333333333333333333333333333333333333333333333333333333333333333",
"5555555555543333455555555555555555555555555433334555555555555555",
"00000000000943349000000000&oooooooooooo&000943349000000000000000",
"qqqqqqqqqqq053350qqqqqqqqq*  oooooo    *qqq053350qqqqqqqqqqqqqqq",
"qqqqqqqqqqq053350qqqq7oooo  ARRRRRRM    oooo-3350qqqqqqqqqqqqqqq",
"qqqqqqqqqqq053350qqqq8  ooooZYYYYYYmOOOX    -3350qqqqqqqqqqqqqqq",
"qqqqqqqqqqq053350qq1o  eRRRRCcccccclllldX   -3350qqqqqqqqqqqqqqq",
"qqqqqqqqqqq053350qq<  owYYYYVcccccclljfsOO  ;3350qqqqqqqqqqqqqqq",
"qqqqqqqqqqq053350qq< BRPvcccFYYYYYYmOyfglz>  o$50qqqqqqqqqqqqqqq",
"qqqqqqqqqqq053350qq2 BRIgfffGRTYYYYm yfffg:   #50qqqqqqqqqqqqqqq",
"qqqqqqqqqqq053350oo  BRIgfffGRKcccct yfffg:   #50qqqqqqqqqqqqqqq",
"qqqqqqqqqqq053350o  oNYLgfffGRKffffr yfffg:O. %50qqqqqqqqqqqqqqq",
"qqqqqqqqqqq053350o SRHcxffffGRKffffr yffffkli  ooqqqqqqqqqqqqqqq",
"00000000000943349o DRGffffffGRKffffr yffffffu   o000000000000000",
"55555555555433334o DRGffffffGRKffffr yffffffu   o555555555555555",
"33333333333333333o DRGffffffGRKffffr yffffffu   o333333333333333",
"33333333333333333o DRGffffffGRKffffr yffffffu   o333333333333333",
"55555555555555555o DRGffffffGRKffffr yffffffu   o555555555543333",
"00000000000000000o DRGffffffGRKffffr yffffffu   o000000000094333",
"qqqqqqqqqqqqqqqqqo DRGffffffGRKffffr yffffffu   oqqqqqqqqqq05333",
"qqqqqqqqqqqqqqqqqo DRGffffffGRKffffr yffffffu   oqqqqqqqqqq05333",
"qqqqqqqqqqqqqqqqqo DRGffffffGRKffffr yffffffu   oqqqqqqqqqq05333",
"qqqqqqqqqqqqqqqqqo DRGffffffGRKffffr yffffffu   oqqqqqqqqqq05333",
"qqqqqqqqqqqqqqqqqo SRHcxffffGRKffffr yffffkli  ooqqqqqqqqqq05333",
"qqqqqqqqqqqqqqqqqo  oNYLgfffGRKffffr yfffg:O. 2qqqqqqqqqqqq05333",
"qqqqqqqqqqqqqqqqqoo  BRIgfffGRJllllt yfffg:   <qqqqqqqqqqqq05333",
"qqqqqqqqqqqqqqqqqqq2 BRIgfffuooOOOO. yfffg:   <qqqqqqqqqqqq05333",
"qqqqqqqqqqqqqqqqqqq< BRPvcgfuOOOOOOOOyfglz>  o1qqqqqqqqqqqq05333",
"qqqqqqqqqqqqqqqqqqq<  owYUbfjlllllllljfsOO  8qqqqqqqqqqqqqq05333",
"0000000000000000000,o  eRTnlhffffffkllldX   60000000000000094333",
"555555555555555555555;  ooOOpffffffrOOOo    -5555555555555543333",
"333333333333333333333=oooo  allllllt    oooo=3333333333333333333",
"33333333333333333333333333@ .OOOOOO.   @333333333333333333333333",
"55555555555433334555555555+oooooooooooo+555433334555555555555555",
"0000000000094334900000000000000000000000000943349000000000000000",
"qqqqqqqqqqq053350qqqqqqqqqqqqqqqqqqqqqqqqqq053350qqqqqqqqqqqqqqq",
"qqqqqqqqqqq053350qqqqqqqqqqqqqqqqqqqqqqqqqq053350qqqqqqqqqqqqqqq",
"qqqqqqqqqqq053350qqqqqqqqqqqqqqqqqqqqqqqqqq053350qqqqqqqqqqqqqqq",
"qqqqqqqqqqq053350qqqqqqqqqqqqqqqqqqqqqqqqqq053350qqqqqqqqqqqqqqq",
"qqqqqqqqqqq053350qqqqqqqqqqqqqqqqqqqqqqqqqq053350qqqqqqqqqqqqqqq",
"qqqqqqqqqqq053350qqqqqqqqqqqqqqqqqqqqqqqqqq053350qqqqqqqqqqqqqqq",
"qqqqqqqqqqq053350qqqqqqqqqqqqqqqqqqqqqqqqqq053350qqqqqqqqqqqqqqq",
"qqqqqqqqqqq053350qqqqqqqqqqqqqqqqqqqqqqqqqq053350qqqqqqqqqqqqqqq",
"qqqqqqqqqqq053350qqqqqqqqqqqqqqqqqqqqqqqqqq053350qqqqqqqqqqqqqqq",
"qqqqqqqqqqq053350qqqqqqqqqqqqqqqqqqqqqqqqqq053350qqqqqqqqqqqqqqq",
"0000000000094334900000000000000000000000000943349000000000000000",
"5555555555543333455555555555555555555555555433334555555555555555",
"3333333333333333333333333333333333333333333333333333333333333333",
"3333333333333333333333333333333333333333333333333333333333333333",
"3333333333333333333333333333333333333333333333333333333333333333"
};
