/* XPM */
static char *result[] = {
/* columns rows colors chars-per-pixel */
"64 64 21 1 ",
"  c gray1",
". c #030404",
"X c #030D12",
"o c #030D13",
"O c #04141B",
"+ c #04161E",
"@ c #04161F",
"# c #04212C",
"$ c #0D5C75",
"% c #0D5D75",
"& c #0E5E76",
"* c #0E5F78",
"= c #0E5F79",
"- c #0E617A",
"; c #0E627C",
": c #1489AF",
"> c #148AAF",
", c #158BB0",
"< c #158BB1",
"1 c #158CB2",
"2 c #158DB3",
/* pixels */
"***-1222222222222222222222222222222222222222222222222222222<@   ",
"***-1222222222222222222222222222222222222222222222222222222<@   ",
"***-1222222222222222222222222222222222222222222222222222222<@   ",
"---;,111222222222222222222222222222222222222222222222222<<<:+   ",
"111,;--;12222222222222222222222222222222222222222222222<#@@+.   ",
"2221-**-12222222222222222222222222222222222222222222222<@       ",
"2221-**-12222222222222222222222222222222222222222222222<@       ",
"2221;--;,1112222222222222222222222222222222222222222<<<:+       ",
"2222111,;--;122222222222222222222222222222222222222<#@@+.       ",
"22222221-**-122222222222222222222222222222222222222<@           ",
"22222221-**-122222222222222222222222222222222222222<@           ",
"22222221;--;,11122222222222222222222222222222222<<<:+           ",
"22222222111,;--;1222222222222222222222222222222<#@@+.           ",
"222222222221-**-1222222222222222222222222222222<@               ",
"222222222221-**-1222222222222222222222222222222<@               ",
"222222222221;--;,111111111111111111111111111111>+               ",
"222222222222111,;------------------------------=o               ",
"2222222222222221-******************************&X               ",
"2222222222222221-******************************&X               ",
"2222222222222221-******************************&X               ",
"2222222222222221-******************************&X               ",
"2222222222222221-******************************&X               ",
"2222222222222221-******************************&X               ",
"2222222222222221-******************************&X               ",
"2222222222222221-******************************&X               ",
"2222222222222221-******************************&X               ",
"2222222222222221-******************************&X               ",
"2222222222222221-******************************&X               ",
"2222222222222221-******************************&X               ",
"2222222222222221-******************************&X               ",
"2222222222222221-******************************&X               ",
"2222222222222221-******************************&X               ",
"2222222222222221-******************************&X               ",
"2222222222222221-******************************&X               ",
"2222222222222221-******************************&X               ",
"2222222222222221-******************************&X               ",
"2222222222222221-******************************&X               ",
"2222222222222221-******************************&X               ",
"2222222222222221-******************************&X               ",
"2222222222222221-******************************&X               ",
"2222222222222221-******************************&X               ",
"2222222222222221-******************************&X               ",
"2222222222222221-******************************&X               ",
"2222222222222221-******************************&X               ",
"2222222222222221-******************************&X               ",
"2222222222222221-******************************&X               ",
"2222222222222221-******************************&X               ",
"222222222222<<<>=&&&&&&&&&&&&&&&&&&&&&&&&&&&&&&%OXXX            ",
"22222222222<#@@+oXXXXXXXXXXXXXXXXXXXXXXXXXXXXXXO%&&$X           ",
"22222222222<@                                  X&**&X           ",
"22222222222<@                                  X&**&X           ",
"22222222<<<:+                                  X$&&%OXXX        ",
"2222222<#@@+.                                   XXXO%&&$X       ",
"2222222<@                                          X&**&X       ",
"2222222<@                                          X&**&X       ",
"2222<<<:+                                          X$&&%OXXX    ",
"222<#@@+.                                           XXXO%&&$X   ",
"222<@                                                  X&**&X   ",
"222<@                                                  X&**&X   ",
"<<<:+                                                  X$&&%OXXX",
"@@@+.                                                   XXXO%&&&",
"                                                           X&***",
"                                                           X&***",
"                                                           X&***"
};
