/* XPM */
static char *_16ea979c33c495daf9a358f483d4affjdZM5sJR3rBD5mDF[] = {
/* columns rows colors chars-per-pixel */
"64 64 116 2 ",
"   c black",
".  c #000203",
"X  c #010700",
"o  c #000407",
"O  c #010F01",
"+  c #011301",
"@  c #011501",
"#  c #021B01",
"$  c #031902",
"%  c #021E01",
"&  c #031C02",
"*  c #032101",
"=  c #062604",
"-  c #032802",
";  c #042A02",
":  c #042D02",
">  c #042F02",
",  c #072C05",
"<  c #082E05",
"1  c #063603",
"2  c #093106",
"3  c #083504",
"4  c #0A3506",
"5  c #093805",
"6  c #093C05",
"7  c #083E04",
"8  c #083F04",
"9  c #0B3E06",
"0  c #0C3A08",
"q  c #0C3D08",
"w  c gray23",
"e  c #094104",
"r  c #0C4307",
"t  c #0B4406",
"y  c #0D4407",
"u  c #0D4A07",
"i  c #0C4D05",
"p  c #0F420A",
"a  c #0E4708",
"s  c #0F4B09",
"d  c #0E5206",
"f  c #0F5607",
"g  c #0F5707",
"h  c #11520A",
"j  c #12550B",
"k  c #12510C",
"l  c #13580B",
"z  c #115F08",
"x  c #135F0A",
"c  c #155E0E",
"v  c #126009",
"b  c #136409",
"n  c #14670A",
"m  c #16610E",
"M  c #15640D",
"N  c #17640E",
"B  c #126809",
"V  c #146A0B",
"C  c #146F0A",
"Z  c #156C0C",
"A  c #166E0C",
"S  c #186B0F",
"D  c #186C0F",
"F  c #16710C",
"G  c #17720D",
"H  c #17740D",
"J  c #18740E",
"K  c #19790E",
"L  c #1A7F0F",
"P  c #1A7211",
"I  c #1C7A12",
"U  c #395238",
"Y  c #3E553D",
"T  c #083847",
"R  c #083949",
"E  c #083A49",
"W  c #0E5E77",
"Q  c #0E5F78",
"!  c gray25",
"~  c #1B820F",
"^  c #1C8310",
"/  c #1C8410",
"(  c #1D8811",
")  c #1D8F11",
"_  c #1E8C12",
"`  c #1F8E12",
"'  c #1E9112",
"]  c #1F9013",
"[  c #208C14",
"{  c #209213",
"}  c #209413",
"|  c #219614",
" . c #219B13",
".. c #229A14",
"X. c #239C15",
"o. c #239D15",
"O. c #249F16",
"+. c #22A214",
"@. c #24A016",
"#. c #23A615",
"$. c #25A417",
"%. c #26A717",
"&. c #26A817",
"*. c #27A918",
"=. c #27AB18",
"-. c #26B117",
";. c #2AB71A",
":. c #29BB19",
">. c #2ABE1A",
",. c #2DCA1C",
"<. c #2EC91E",
"1. c #2FCC1E",
"2. c #30CF1E",
"3. c #32DA20",
"4. c #34E321",
"5. c #85AA84",
/* pixels */
"Q Q Q Q Q Q Q Q Q Q Q Q Q Q Q Q Q Q Q Q Q Q Q Q Q !                         w Q Q Q Q Q Q Q Q Q Q Q Q Q Q Q Q Q Q Q Q W R T T T ",
"Q Q Q Q Q Q Q Q Q Q Q Q Q Q Q Q Q Q Q Q Q Q Q Q Q Y e 6 6 6 6 e e 6 7 e 6 6 U Q Q Q Q Q Q Q Q Q Q Q Q Q Q Q Q Q Q Q Q W R T T T ",
"Q Q Q Q Q Q Q Q Q Q Q Q Q Q Q Q Q                 &.&.=.=.=.=.=.=.=.=.=.=.=.&.                Q Q Q Q Q Q Q Q Q Q Q Q W R T T T ",
"Q Q Q Q Q Q Q Q Q Q Q Q Q Q Q Q Q     6 g g g g g &.=.=.=.=.=.=.=.=.=.=.=.=.&.f f f f f 6     Q Q Q Q Q Q Q Q Q Q Q Q W R T T T ",
"Q Q Q Q Q Q Q Q Q Q Q Q               L =.=.=.=.=.=.=.=.=.=.=.=.=.=.=.=.=.=.=.=.=.=.=.=.~               Q Q Q Q Q Q Q W R T T T ",
"Q Q Q Q Q Q Q Q Q Q Q Q   % V V V Z V { =.=.=.=.=.[ _ _ _ _ _ _ _ _ _ _ _ _ _ =.=.=.=.=.{ V Z B B A %   Q Q Q Q Q Q Q W R T T T ",
"Q Q Q Q Q Q               1 =.=.=.=.=.=.=.=.=.=.=.;                         - =.=.=.=.=.=.=.=.=.=.=.3               Q Q E T T T ",
"Q Q Q Q Q Q K K K K K K K L =.=.=.=.=.} L L ~ ^ ~ u r r r r r r e p a e y y u ~ ~ L L ^ } =.=.=.=.=.^ K K K K K K K Q Q E T T T ",
"Q Q Q     H =.=.=.=.=.=.=.=.=.=.=.=.=.K           m m m m m m m m m m m m m m           I =.=.=.=.=.=.=.=.=.=.=.=.=.H     T T T ",
"Q Q Q     H =.=.=.=.=.=.=.%.F F F F F v s s s s s 9 9 9 9 6 r 6 6 e 9 q q 6 9 s s s s s z F F F F A %.=.=.=.=.=.=.=.J     T T T ",
"Q Q Q     H =.=.=.=.=.=.=.%.          y m m m m m @                         + m m m m m a           %.=.=.=.=.=.=.=.J     T T T ",
"W W Q { { o.=.=.=.=.=.A z v h h h h h p 3 3 3 3 3 X                         X 3 3 3 3 3 a h h h h h v v A =.=.=.=.=.o.{ { T T T ",
"    d =.=.=.=.=.=.=.=.e   # m m m m m p                                                 a m m m m m #   e =.=.=.=.=.=.=.=.d     ",
"    d =.=.=.=.=.=.=.=.e   # m m k ; ; #                                                 # ; ; k m m #   e =.=.=.=.=.=.=.=.d     ",
"    d =.=.=.=.=.=.=.=.e   # m m h                                                             h m m #   e =.=.=.=.=.=.=.=.d     ",
".   @ ; - K =.=.=.=.=.%.%.@.+ + O                                                             O + + @.%.=.=.=.=.=.=.J ; ; @   o ",
"o         H =.=.=.=.=.=.=.%.- : ; ; ; #                                                 # ; ; ; ; ; %.=.=.=.=.=.=.=.H         o ",
"o         H =.=.=.=.=.=.=.=.=.=.=.=.=.K                                                 K =.=.=.=.=.=.=.=.=.=.=.=.=.J         o ",
"o   X $ $ A o.o.o.o.o.o...o.=.=.=.=.=./ i i i i i +                         + i i i i i / =.=.=.=.=.o...o.o.o.o...O.^ v n 1   o ",
"o   & p p 2               3 =.=.=.=.=.=.=.=.=.=.=.-                         - =.=.=.=.=.=.=.=.=.=.=.3               -.4.4.F   o ",
"o   & p p q 3 3 6 a e @   : { { { { { +.=.=.=.=.=.n v v v n v v v v v v z v N =.=.=.=.=.o.{ { { ' { :   * v v B H H >.4.4.C     ",
"o   & p p k m m P I I ,               I =.=.=.=.=.=.&.=.&.=.=.=.=.=.=.=.=.=.&.=.=.=.=.=.^               e =.=.;.1.1.3.4.4.C   o ",
"o   & p p k m m P I I F F F F F v     n ( ( / ( ( =.=.=.=.=.=.=.=.=.=.=.=.=.=./ ( ( / ( n     v F F F F L =.=.;.1.1.3.4.4.C   o ",
"o   $ p p k m m P I I %.=.=.=.=.]                 &.=.=.=.=.=.=.=.=.=.=.=.=.=.                { =.=.=.=.=.=.=.;.1.1.3.4.4.F   o ",
"Q Q Q , , 5 y y A I I =.=.=.=.=.o.^ ~ L ^ ^ L L ~ K K K K K K K K K K K K K K ~ I ~ ~ ~ ~ ~ ~ o.=.=.=.=.=.=.=.@.] ] ..+.+.Q Q Q ",
"Q Q Q           m I I %.=.=.=.=.=.=.=.=.=.=.=.=.=.-                         - =.=.=.&.=.=.=.=.=.=.=.=.=.=.=.=._           Q Q Q ",
"Q Q Q Q Q Q     6 u u n V V V V ^ =.=.=.=.=.=.=.=.[ _ _ _ _ _ _ _ _ _ _ _ _ _ =.=.=.=.=.=.=.=./ V V A B A B V f     Q Q Q Q Q Q ",
"Q Q Q Q Q Q                     n =.=.=.=.=.=.=.=.=.=.=.=.=.=.=.=.=.=.=.=.=.=.=.=.=.=.=.=.=.=.v                     Q Q W W W Q ",
"R R R R R R     < 0 0 k j l D D N f f f f f ..=.=.=.=.=.=.=.=.=.=.=.=.=.=.=.=.=.=...l g g g g ( ....-.;.:.,.,.#.    E E R R R R ",
"T T T T T R     3 p p c m N I I N           } =.=.=.=.=.=.=.=.=.=.=.=.=.=.=.=.=.=.}           _ =.=.1.1.2.4.4.:.    T T T T T T ",
"T T T T T T     4 p p c m N I I _ O.O.%.@.@.B 6 6 6 e 6 e 6 6 6 7 e 6 e 6 e e 6 6 B @.@.%.O.O.%.=.=.<.1.1.4.4.;.    T T T T T T ",
"R R R R R E     4 p p c m N I I _ =.=.=.=.=.z                                     z =.=.=.=.=.=.=.=.<.1.,.4.4.<.    E R T T T T ",
"W Q Q Q Q Q     4 p p c m N I I [ =.=.=.=.=.=.=.=.=.=.=.=.=.=.=.=.=.=.=.=.=.=.=.=.=.=.=.=.=.=.=.=.=.<.,.2.4.4.:.    W W R T T T ",
"Q Q Q Q Q Q     4 p p c m N I I [ =.=.=.=.=.=.=.=.=.=.=.=.=.=.=.=.=.=.=.=.=.=.=.=.=.=.=.=.=.=.=.=.=.1.1.2.4.4.:.    Q W R T T T ",
"Q Q Q Q Q Q     4 p p c m N I I [ =.=.=.=.=.=.=.=.=.=.=.=.=.=.=.=.=.=.=.=.=.=.=.=.=.=.=.=.=.=.=.=.=.1.1.2.4.4.:.    Q W R T T T ",
"Q Q Q Q Q Q     4 p p c m N I I [ =.=.=.=.=.=.=.=.=.=.=.=.=.=.=.=.=.=.=.=.=.=.=.=.=.=.=.=.=.=.=.=.&.<.1.,.4.4.:.    Q Q R T T T ",
"Q Q Q Q Q Q     4 p p c m N I I [ =.=.=.=.=.=.=.=.=.=.=.=.=.=.=.=.=.=.=.=.=.=.=.=.=.=.=.=.=.=.=.=.=.<.1.1.4.4.:.    Q W R T T T ",
"Q Q Q Q Q Q     4 p p c m N I I [ =.=.=.=.=.=.=.=.=.=.=.=.=.=.=.=.=.=.=.=.=.=.=.=.=.=.=.=.=.=.=.=.=.<.1.1.4.4.:.    Q W R T T T ",
"Q Q Q Q Q Q     4 p p c m N I I [ =.=.=.=.=.=.=.=.=.=.=.=.=.=.=.=.=.=.=.=.=.=.=.=.=.=.=.=.=.=.=.=.=.<.1.1.4.4.;.    Q Q R T T T ",
"Q Q Q Q Q Q     4 p p c m N I I [ =.=.=.=.=.=.=.=.=.=.=.=.=.=.=.=.=.=.=.=.=.=.=.=.=.=.=.=.=.=.=.=.=.<.1.3.3.4.<.    Q Q R T T T ",
"Q Q Q Q Q Q     4 p p c m N I I [ =.=.=.=.=.=.=.=.=.=.=.=.=.=.=.=.=.=.=.=.=.=.=.=.=.=.=.=.=.=.=.=.&.<.2.2.4.4.:.    Q W R T T T ",
"Q Q Q Q Q Q     4 p p c m N I I [ =.=.=.=.=.=.=.=.=.=.=.=.=.=.=.=.=.=.=.=.=.=.=.=.=.=.=.=.=.=.=.=.&.<.2.2.4.4.:.    Q W R T T T ",
"Q Q Q Q Q Q     4 p p c m N I I [ =.=.=.=.=.=.=.=.=.=.=.=.=.=.=.=.=.=.=.=.=.=.=.=.=.=.=.=.=.=.=.=.=.<.,.2.4.4.:.    Q W R T T T ",
"W W W W W W     4 p p c m N I I [ =.=.=.=.=.=.=.=.=.=.=.=.=.=.=.=.=.=.=.=.=.=.=.=.=.=.=.=.=.=.=.=.=.<.2.2.4.4.:.    W W R T T T ",
"E E E E R R     4 p p c m N I I [ =.=.=.=.=.=.=.=.=.=.=.=.=.=.=.=.=.=.=.=.=.=.=.=.=.=.=.=.=.=.=.=.=.<.2.2.4.4.:.    E R T T T T ",
"T T T T T T     4 p p c m N I I [ =.=.=.=.=.=.=.=.=.=.=.=.=.=.=.=.=.=.=.=.=.=.=.=.=.=.=.=.=.=.=.=.=.<.,.2.4.4.:.    T T T T T T ",
"T T T T T T     3 p p c m N I I [ =.=.=.=.=.=.=.=.=.=.=.=.=.=.=.=.=.=.=.=.=.=.=.=.=.=.=.=.=.=.=.=.=.<.1.2.4.4.;.    T T T T T T ",
"E E R R R R     3 p p c m N I I [ =.=.=.=.=.=.=.=.=.=.=.=.=.=.=.=.=.=.=.=.=.=.=.=.=.=.=.=.=.=.=.=.=.<.1.,.4.4.<.    E E E E E E ",
"Q Q W W W W     4 p p c m N I I [ =.=.=.=.=.=.=.=.=.=.=.=.=.=.=.=.=.=.=.=.=.=.=.=.=.=.=.=.=.=.=.=.=.<.1.2.4.4.;.    Q W W W W W ",
"Q Q Q Q Q Q     4 p p c m N I I [ =.=.=.=.=.=.=.=.=.=.=.=.=.=.=.=.=.=.=.=.=.=.=.=.=.=.=.=.=.=.=.=.=.<.1.1.4.4.<.    Q Q Q Q Q Q ",
"Q Q Q Q Q Q     4 p p c m N I I [ =.=.=.=.=.=.=.=.=.=.=.=.=.=.=.=.=.=.=.=.=.=.=.=.=.=.=.=.=.=.=.=.=.<.1.3.3.4.:.    Q Q Q Q Q Q ",
"Q Q Q Q Q Q     4 p p c m N I I [ =.=.=.=.=.=.=.=.=.=.=.=.=.=.=.=.=.=.=.=.=.=.=.=.=.=.=.=.=.=.=.=.=.<.1.1.4.4.:.    Q Q Q Q Q Q ",
"Q Q Q Q Q Q     4 p p c m N I I [ =.=.=.=.=.=.=.=.=.=.=.=.=.=.=.=.=.=.=.=.=.=.=.=.=.=.=.=.=.=.=.=.=.<.1.1.4.4.:.    Q Q Q Q Q Q ",
"Q Q Q Q Q Q     4 p p c m N I I [ =.=.=.=.=.=.=.=.=.=.=.=.=.=.=.=.=.=.=.=.=.=.=.=.=.=.=.=.=.=.=.=.=.<.1.1.4.4.:.    Q Q Q Q Q Q ",
"Q Q Q Q Q Q     4 p p c m N I I [ =.=.=.=.=.=.=.=.=.=.=.=.=.=.=.=.=.=.=.=.=.=.=.=.=.=.=.=.=.=.=.=.=.<.1.3.4.4.:.    Q Q Q Q Q Q ",
"Q Q Q Q Q Q     4 p p c m N I I [ =.=.=.=.=.=.=.=.=.=.=.=.=.=.=.=.=.=.=.=.=.=.=.=.=.=.=.=.=.=.=.=.=.<.1.2.3.4.>.    Q Q Q Q Q Q ",
"Q Q Q Q Q Q     4 p p c m N I I [ =.=.=.=.=.=.=.=.=.=.=.=.=.=.=.=.=.=.=.=.=.=.=.=.=.=.=.=.=.=.=.=.=.<.1.2.4.4.>.    Q Q Q Q Q Q ",
"Q Q Q Q Q Q     4 p p c m N I I [ =.=.=.=.=.=.=.=.=.=.=.=.=.=.=.=.=.=.=.=.=.=.=.=.=.=.=.=.=.=.=.=.=.,.<.2.4.4.>.    Q Q Q Q Q Q ",
"Q Q Q Q Q Q Q Q Q = = 5 5 6 u u F =.=.=.=.=.=.=.=.=.=.=.=.=.=.=.=.=.=.=.=.=.=.=.=.=.=.=.=.=.=.^ C B ~ L ~ _ ' 5.Q Q Q Q Q Q Q Q ",
"W W W W W Q Q Q W               n =.=.=.=.=.=.=.=.=.=.=.=.=.=.=.=.=.=.=.=.=.=.=.=.=.=.=.=.=.=.n               Q W W W W W W W W ",
"R R E E E E E E E E R R T T T T R f f f f f f g g &.=.=.=.=.=.=.=.=.=.=.=.=.%.f f f f f f f f T R R R R E E E E E E R R R R R R ",
"T T T T T T T T T T T T T T T T T                 &.=.=.=.&.=.=.=.=.=.&.=.=.%.                T R T T T T T T T T T T T T T T T ",
"T T T T T T T T T T T T T T T T T T T T T T T T T U 6 e 6 e 6 6 e e 6 e 6 6 Y T T T T T T T T T T T T T T T T T T T T T T T T T ",
"T T T T T T T T T T T T T T T T T T T T T T T T T w                         ! T T T T T T T T T T T T T T T T T T T T T T T T T "
};
