/* XPM */
static char *result[] = {
/* columns rows colors chars-per-pixel */
"64 64 48 1 ",
"  c #041920",
". c #041A21",
"X c #041B23",
"o c #041C23",
"O c #041D25",
"+ c #041D26",
"@ c #041F28",
"# c #042029",
"$ c #05242F",
"% c #05252F",
"& c #062833",
"* c #062B37",
"= c #062C38",
"- c #062E3B",
"; c #062F3B",
": c #062F3C",
"> c #062F3D",
", c #07303D",
"< c #063341",
"1 c #073342",
"2 c #073746",
"3 c #083846",
"4 c #083847",
"5 c #073848",
"6 c #073A4A",
"7 c #083949",
"8 c #083A49",
"9 c #083D4D",
"0 c #094355",
"q c #094456",
"w c #094558",
"e c #094659",
"r c #09475A",
"t c #0A4C61",
"y c #0B4D62",
"u c #0B5066",
"i c #0B5167",
"p c #0B5267",
"a c #0B5268",
"s c #0C536A",
"d c #0D5870",
"f c #0D5971",
"g c #0D5B73",
"h c #0E5D75",
"j c #0E5D76",
"k c #0E5E76",
"l c #0E5E77",
"z c #0E5F78",
/* pixels */
"zzzzzzzzzzzzzzzzzzzzzzzzzzzl8448lzzzzzzzzzzzzzzzzzzzzzzzzzzl8444",
"zzzzzzzzzzzzzzzzzzzzzzzzzzzl8448lzzzzzzzzzzzzzzzzzzzzzzzzzzl8444",
"zzzzzzzzzzzzzzzzzzzzzzzzzzzl8448lzzzzzzzzzzzzzzzzzzzzzzzzzzl8444",
"zzzzzzzzzzzzzzzzzzzzzzzzzzzl8448lzzzzzzzzzzzzzzzzzzzzzzzzzzl8444",
"zzzzzzzzzzzzzzzzzzzzzzzzzzzl8448lzzzzzzzzzzzzzzzzzzzzzzzzzzl8444",
"zzzzzzzzzzzzzzzzzzzzzzzzzzzl8448lzzzzzzzzzzzzzzzzzzzzzzzzzzl8444",
"zzzzzzzzzzzzzzzzzzzzzzzzzzzl8448lzzzzzzzzzzzzzzzzzzzzzzzzzzl8444",
"zzzzzzzzzzzzzzzzzzzzzzzzzhiwX   .O%:6eihzzzzzzzzzzzzzzzzzzzl8444",
"zzzzzzzzzzzzzzzzzzzzzzkt2               2tkzzzzzzzzzzzzzzzzl8444",
"zzzzzzzzzzzzzzzzzzzzgq#                   #qgzzzzzzzzzzzzzzl8444",
"zzzzzzzzzzzzzzzzzzzro                       orzzzzzzzzzzzzzl8444",
"llllllllllllllllls>                           >slllllllllllj7444",
"8888888888888888;                               ;888888888874444",
"444444444444444&                                 &44444444444444",
"44444444444444$                                   $4444444444444",
"8888888888874*                                     =888888888888",
"lllllllllllj,                                       ylllllllllll",
"zzzzzzzzzzzd                                        @fzzzzzzzzzz",
"zzzzzzzzzzz6                                         6zzzzzzzzzz",
"zzzzzzzzzzu                                           uzzzzzzzzz",
"zzzzzzzzzz<                                           <zzzzzzzzz",
"zzzzzzzzza                                             azzzzzzzz",
"zzzzzzzzz9                                             9zzzzzzzz",
"zzzzzzzzl                                              +lzzzzzzz",
"zzzzzzzzp                                               pzzzzzzz",
"zzzzzzzzw                                               wzzzzzzz",
"zzzzzzzz5                                               5zzzzzzz",
"llllllll=                                               =lllllll",
"88888888                                                 8888888",
"44444444                                                 4444444",
"44444444                                                 4444444",
"88888888                                                 8874444",
"llllllll=                                               =llj7444",
"zzzzzzzz5                                               5zzl8444",
"zzzzzzzzw                                               wzzl8444",
"zzzzzzzzp                                               pzzl8444",
"zzzzzzzzl+                                             +lzzl8444",
"zzzzzzzzz9                                             9zzzl8444",
"zzzzzzzzza                                             azzzl8444",
"zzzzzzzzzz<                                           <zzzzl8444",
"zzzzzzzzzzu                                           uzzzzl8444",
"zzzzzzzzzzz6                                         6zzzzzl8444",
"zzzzzzzzzzzf@                                       @fzzzzzl8444",
"lllllllllllly                                       yllllllj7444",
"8888888888888=                                     =888888874444",
"44444444444444$                                   $4444444444444",
"444444444444444&                                 &44444444444444",
"8888888888874444-                               -888888888888888",
"lllllllllllj7447js>                            1jlllllllllllllll",
"zzzzzzzzzzzl8448lzzro                        =48lzzzzzzzzzzzzzzz",
"zzzzzzzzzzzl8448lzzzgq#                   #03448lzzzzzzzzzzzzzzz",
"zzzzzzzzzzzl8448lzzzzzkt2               2tkl8448lzzzzzzzzzzzzzzz",
"zzzzzzzzzzzl8448lzzzzzzzzhie6:%O.O%:6eihzzzl8448lzzzzzzzzzzzzzzz",
"zzzzzzzzzzzl8448lzzzzzzzzzzzzzzzzzzzzzzzzzzl8448lzzzzzzzzzzzzzzz",
"zzzzzzzzzzzl8448lzzzzzzzzzzzzzzzzzzzzzzzzzzl8448lzzzzzzzzzzzzzzz",
"zzzzzzzzzzzl8448lzzzzzzzzzzzzzzzzzzzzzzzzzzl8448lzzzzzzzzzzzzzzz",
"zzzzzzzzzzzl8448lzzzzzzzzzzzzzzzzzzzzzzzzzzl8448lzzzzzzzzzzzzzzz",
"zzzzzzzzzzzl8448lzzzzzzzzzzzzzzzzzzzzzzzzzzl8448lzzzzzzzzzzzzzzz",
"zzzzzzzzzzzl8448lzzzzzzzzzzzzzzzzzzzzzzzzzzl8448lzzzzzzzzzzzzzzz",
"lllllllllllj7447jllllllllllllllllllllllllllj7447jlllllllllllllll",
"8888888888874444788888888888888888888888888744447888888888888888",
"4444444444444444444444444444444444444444444444444444444444444444",
"4444444444444444444444444444444444444444444444444444444444444444",
"4444444444444444444444444444444444444444444444444444444444444444"
};
