/* XPM */
static char *_940cacca1c94fea9c63426930c261efY23VOgR7bPpzCDyX[] = {
/* columns rows colors chars-per-pixel */
"64 64 209 2 ",
"   c black",
".  c #120E09",
"X  c #1D1D1D",
"o  c #34130F",
"O  c #210C10",
"+  c #2A1A1B",
"@  c #391410",
"#  c #2F220F",
"$  c #312410",
"%  c #392A15",
"&  c #361A20",
"*  c #371A20",
"=  c #222121",
"-  c #2A2A2A",
";  c #3D2430",
":  c gray19",
">  c gray21",
",  c #313039",
"<  c #3B3A3B",
"1  c #4D180F",
"2  c #441B14",
"3  c #40161F",
"4  c #422110",
"5  c #4A2410",
"6  c #423318",
"7  c #421821",
"8  c #492021",
"9  c #4C2425",
"0  c #512522",
"q  c #5B2C23",
"w  c #50292A",
"e  c #413425",
"r  c #4E3E22",
"t  c #5A3A28",
"y  c #5B3C38",
"u  c #5D3E3A",
"i  c #683724",
"p  c #753F23",
"a  c #5C4A27",
"s  c #6D5231",
"d  c #7B5F3C",
"f  c #083847",
"g  c #083948",
"h  c #083A49",
"j  c #3E3E41",
"k  c #292C69",
"l  c #0A475B",
"z  c #0A485B",
"x  c #0C546A",
"c  c #0C546B",
"v  c #0E5E77",
"b  c #0E5F78",
"n  c #444445",
"m  c #484643",
"M  c #414B4C",
"N  c #4B4B4B",
"B  c #494652",
"V  c #4C4D59",
"C  c #41515A",
"Z  c #535253",
"A  c #565151",
"S  c #5A5A5B",
"D  c #6F4B41",
"F  c #674B48",
"G  c #724A47",
"H  c #755740",
"J  c #745B57",
"K  c #545764",
"L  c #5F616D",
"P  c #5F6971",
"I  c #626262",
"U  c #62646D",
"Y  c #686868",
"T  c #6C6C6F",
"R  c #7E6763",
"E  c #727273",
"W  c #757678",
"Q  c #777779",
"!  c #79797B",
"~  c #7B7B7D",
"^  c #7D7D7F",
"/  c #B72A0F",
"(  c #883A35",
")  c #D01F06",
"_  c #C72D10",
"`  c #CC3331",
"'  c #824721",
"]  c #854921",
"[  c #884B21",
"{  c #8C4E22",
"}  c #8E5022",
"|  c #8F5123",
" . c #915324",
".. c #935525",
"X. c #955826",
"o. c #985B27",
"O. c #9A5F29",
"+. c #9C612A",
"@. c #9D612A",
"#. c #9F642B",
"$. c #80633F",
"%. c #A2682D",
"&. c #A56B2E",
"*. c #A86F30",
"=. c #AA7231",
"-. c #B63448",
";. c #876842",
":. c #8B6D45",
">. c #8D6F46",
",. c #8F7148",
"<. c #927349",
"1. c #9B7B4D",
"2. c #946968",
"3. c #88736C",
"4. c #907D78",
"5. c #B5676F",
"6. c #F5795E",
"7. c #BBA035",
"8. c #D0B43C",
"9. c #E4B734",
"0. c #E7BC36",
"q. c #EAC139",
"w. c #EDC63C",
"e. c #A48352",
"r. c #A98856",
"t. c #B7945D",
"y. c #F9916F",
"u. c #C5A065",
"i. c #D3AC6D",
"p. c #F0CC41",
"a. c #F1D04A",
"s. c #EDD46A",
"d. c #EAD47D",
"f. c #243094",
"g. c #2F3BA8",
"h. c #2E3AAC",
"j. c #2D3AB2",
"k. c #293BBF",
"l. c #6039A8",
"z. c #3B4181",
"x. c #464B84",
"c. c #293BC0",
"v. c #283CC3",
"b. c #283CC6",
"n. c #273CCD",
"m. c #283CC9",
"M. c #263CD3",
"N. c #263CD8",
"B. c #253CDD",
"V. c #253CE2",
"C. c #243CE6",
"Z. c #243CEB",
"A. c #233CEF",
"S. c #223CF4",
"D. c #223CF8",
"F. c #213CFC",
"G. c #213CFE",
"H. c #4B55C2",
"J. c #7F8184",
"K. c #838385",
"L. c #888789",
"P. c #8A8A8B",
"I. c #8B8B8C",
"U. c #9B8982",
"Y. c #979D8C",
"T. c #939293",
"R. c #939394",
"E. c #979698",
"W. c #9B9B9C",
"Q. c #A59590",
"!. c #B6A18E",
"~. c #A4A3A3",
"^. c #A5A4A4",
"/. c #AAA9A9",
"(. c #AAACAB",
"). c #ADAEAD",
"_. c #B2B1B2",
"`. c #B2B2B2",
"'. c #B8B7B7",
"]. c #B9B8B8",
"[. c #BDBCBC",
"{. c #BEBDBD",
"}. c #C6B29E",
"|. c #FAA384",
" X c #FBB49E",
".X c #E7D590",
"XX c #D4C3AC",
"oX c #E0D4B5",
"OX c #C3C2C3",
"+X c #C9C8C8",
"@X c #D0CFCF",
"#X c #D6D5D5",
"$X c #DBDADA",
"%X c #DFDDDF",
"&X c #EEE0C5",
"*X c #F8ECCE",
"=X c #E2DFE1",
"-X c #E3E1E3",
";X c #E5E3E5",
":X c #E7E5E7",
">X c #E9E7E9",
",X c #EBE9EB",
"<X c #EEEAEE",
"1X c #F0EDF0",
"2X c #F2EFF2",
"3X c #F3F0F3",
"4X c #F5F1F5",
"5X c #F4F2F4",
"6X c #F7F3F7",
/* pixels */
"b b b b b b b b b b b b b b b b b b b b b b b b b b b c f f f l b b b b b b b b b b b b b b b b b b b b b b b b b b b c f f f f ",
"b b b b b b b b b b b b b b b b b b b b b b b b b b b c ; : - ; y e b < < C b b b b b b b b b b b b b b b b b b b b b c f f f f ",
"b b b b b b b b b b b b b b b b b b b b b b b b b b % & ; & + e e e y e e n m b v v b b b b b b b b b b b b b b b b b c f f f f ",
"b b b b b b b b b b b b b b b b b b b b b b b b b : & ; & e # e e e % + % e e e u N b v b b b b b b b b b b b b b b b c f f f f ",
"b b b b b b b b b b b b b b b b b b b b b b b b b : + & + & + + + & & + + e e e < j e v b b b b b b b b b b b b b b b c f f f f ",
"b b b b b b b b b b b b b b b b b b b b b b b + + O O e e $ O O + + & + + % $ % e e < j b b b b b b b b b b b b b b b c f f f f ",
"b b b b b b b b b b b b b b b b b b b b b b b + O + + + e e % $ $ $ e e % $ # % % e e N b b b b b b b b b b b b b b b c f f f f ",
"b b b b b b b b b b b b b b b b b b b b b b b   O O & + + + + % 9 7 y % % # $ % % e e u n b b b b b b b b b b b b b b c f f f f ",
"b b b b b b b b b b b b b b b b b b b b b b + O O + + O + O + % e % % % % 6 e % % % % r y y v b b b b b b b b b b b b c f f f f ",
"b b b b b b b b b b b b b b b b b b b b b b + O O + O + e o o o 2 o 2 2 > % 6 r 0 6 6 e r y S b b b b b b b b b b b b c f f f f ",
"b b b b b b b b b b b b b b b b b b b b b b O O + + + 6 r 7 7 q i i s s p i i s s s r e e y F v b b b b b b b b b b b c f f f f ",
"v v v v v v v v v v v v v v v v v v v v b O . O + o % i $.,.;.( d X.;.d d ( ;.d 1.r.d e e e K v v v v v v v b b v v v c f f f f ",
"h h h h h h h h h h h h h h h h h h h h = . . O O 5 i d 1.1.1.1.#.t.1.:.:.d d 1.i.u.r.s e < 2 W f h h h h h h h h h h f f f f f ",
"f f f f f f f f f f f f f f f f f f f f h . O & 2 i :.r.t.1.r.t.&.u.t.r.r.1.r.i.|.y.y.,.e n @ y f f f f f f f f f f f f f f f f ",
"f f f f f f f f f f f f f f f f h h h h + O . 0 q :.1.t.t.6.y.6.y.|.|.6.t.|. X X|.y.i.1.r @ @ ^.f f f f f f f f f f f f f f f f ",
"h h h h h h h h h h h f f f f h h h h h X O # q i :.t.t.u.y.y.|.|.|.|.y.|.|.|.|.|.|.i.u.y @ W.f h h h h h h h h h h h h h h h f ",
"v v v v v v v v v v v c f f f l v v v v . O 0 i s 1.r.r.t.u.y.|.|.|.y.|.|.|. Xy.|.|.|.u.u f f l b b v v v v v v v v v v v v v v ",
"b b b b b b b b b b b c f f f z b v b b O o q y q w q w 5 7 s r.y.|.|.|.|.|. X X|.|.|.u.F f f l b b b b b b b b b b b b b b b b ",
"b b b b b b b b b b b c f f f z b b b b O 9 i i t y d ;.d y q ( t.y.u.r.1.d <.r.i.|.|.u.F f f l b b b b b b b b b b b b b b b b ",
"b b b b b b b b b b b c f f f z b b b b O w i i s d i i d <.i i r.y.y.t.1.d $.$.d t.|.i.F f h z b b b b b b b b b b b b b b b b ",
"b b b b b b b b b b b c f f f z b v v v O q s d :.i i d p t.s i t.|.y.r.( $.1.1.r.<.u.u.I f f l b b b b b b b b b b b b b b b b ",
"b b b b b b b b b b b c f f f z b v v v o y s 1.r.r.,.1.r.r.>.' u.|.y.1.s 7 $.$.r.t.u.t.f f f l b b b b b b b b b b b b b b b b ",
"b b b b b b b b b b b c f f f z b b v 8 7 y d 1.6.6.t.t.t.r.d ( y.|.|.t.1.1.r.>.r.i.|.r.f f h z b b b b b b b b b b b b b b b b ",
"b b b b b b b b b b b c f f f z b b 7 i w t ( 1.6.6.6.6.6.r.X.o.y.|.|.|.u.u.y.y.y.|.|.r.f f f z b b b b b b b b b b b b b b b b ",
"b b b b b b b b b b b c f f f z b b q q w y ( 1.r.6.y.6.6.r. .%.y.|.|.|.|.|.|.|.|.|.|.t.f f f l b b b b b b b b b b b b b b b b ",
"b b b b b b b b b b b c f f f z b b i w w y s :.r.6.y.y.6.( ( 1.y.|.|.|.|.|.|.|.|.|.|.r.f f f l b b b b b b b b b b b b b b b b ",
"b b b b b b b b b v b c f f f z b b s q q y s d r.6.6.y.@.p ( r.y.|.|.y.|.|.|.|.|.|.i.6.f f f l b b b b b b b b b b b b b b b b ",
"v v v v v v v v v v v c f f f z v v v i w y s d r.t.6.6.O.p 1 ( t.y.6.y.y.|.|.|.|.|.i.y.f f f l v v v v v b b b v v v v v v v v ",
"h h h h h h h h h h h h f f f f h h f i w u y d 1.t.6.t.r.>.( p 1.u.u.y.y.y.|.|.|.|.y.y.f f f f f h h h h h h h h h h h f h h h ",
"f f f f f f f f f f f f f f f f f h h f f i y d 1.r.r.1.1.r.r.t.t.u.y.y.|.y.|.|.|.|.i.^.f f f f f f f f f f f f f f f f f f f f ",
"f f f f f f f f f f f f f f f f h h f h f y s d :.1.r.1.( ( @.=.6.y.y.y.y.y.y.|.|.|.i.f f f f f f f f f f f f f f f f f f f f f ",
"h h h h h h h h h h h h h h h h f h h f h t y s d 1.r.1.( ( -.-.-.-.r.t.t.u.y.|.|.i.|.h h h h h h h h h h h h h h h h f f f f f ",
"v v v v v v v v v v v v v v v v v v v v v M y s s 1.r.r.%.&.r.6.6.6.6.r.1.u.|.i.i.u.t.v v v v v v v v v v v v v v v v c f f f f ",
"b b b b b b b b b b b b b b b b b b b b v v y s s :.1.1.1.r.1.&.t.6.y.|.u.i.i.i.i.b b b b b b b b b b b b b b b b b b c f f f f ",
"b b b b b b b b b b b b b b b b b b b b v b y a s d 1.1.r.t.t.u.y.y.|.|.y.i.i.i.t.b b b b b b b b b b b b b b b b b b c f f f f ",
"b b b b b b b b b b b b b b b b b b b b b b w i s s :.:.r.t.t.y.|.|.|.|.y.i.i.u.b b b b b b b b b b b b b b b b b b b c f f f f ",
"b b b b b b b b b b b b b b b b b b b b v _ w q y s s d 1.r.u.y.|.|.|.i.i.i.u.b b b b b b b b b b b b b b b b b b b b c f f f f ",
"b b b b b b b b b b b b b b b b b b b b ( ) ) q q y i i $.;.r.t.u.i.u.u.u.u.I.b b b b b b b b b b b b b b b b b b b b c f f f f ",
"b b b b b b b b b b b b b b b b b b b b ( -.` _ q q i y i s ;.1.r.t.r.r.t.G.U Y.b b b b b b b b b b b b b b b b b b b c f f f f ",
"b b b b b b b b b b b b b b b b b b x.2.2.5.` _ / q q i s s $.$.>.1.1.1.G.G.I.d.s.b b b b b b b b b b b b b b b b b v c f f f f ",
"b b b b b b b b b b b b b b b b b Q I.R.].OX_.L.G ` ` l.D.Z.u..Xd.d.d.l.G.G.l.a.w.t.b b b b b b b b b b b b b b b b b c f f f f ",
"b b b b b b b b b b b b b b b b /.3.+X<X2X2X4X6X_.S z.G.G.k.a.a.a.a.a.Q.D.G.Z.8.q.7.#X_.b b b b b b b b b b b b b b v c f f f f ",
"b b b b b b b b b b b b b b b b W._.,X,X2X2X2X6X4X! z.F.D.k.p.w.w.w.w.!.G.D.S.P.0.7.Q _.b b b v b b b b b b v b b b b c f f f f ",
"v v v v v v v v v v b b v v v v Y OX:X,X1X1X2X4X=XT.x.b.G.N.8.0.q.q.q.I.D.S.S.Z.U.t.).E ~.v v v v v v v v v v v v v v c f f f f ",
"h h h h f h h h h h h h h h f [.~ %X:X,X1X1X2X2X4X4X_.H.Z.F.! 9.9.9.r.V.A.A.A.A.k.R.).W.~.h h h h h h h h h h h h h h h f f f f ",
"f f f f f f f f f f f f f f f [.].-X-X:X,X<X2X2X4X4X6X^.j.D.A.l.3.U N.Z.C.C.C.C.f.R.).~.K.f f f f f f f f f f f f f f f f f f f ",
"f f f f f f f f f f f f f f f K.$X+X_.>X[.@X1X2X2X4X6X$Xg.S.A.A.Z.C.V.V.B.B.N.M.T /.).W.W.f f f f f f f f f f f f f f f f f f f ",
"h h h h h h h h h h h f f f f ^ %X/.I.;XT./.<X1X4X2X6X=Xk Z.Z.C.V.B.N.M.M.M.M.f.T ).).Y @Xf f h h h h h h h h h h h h h h h h h ",
"b b v v v v v v v v v c f f f K.%XW.W -XJ.W.<X1X,X=X2XR.m.C.B.N.N.M.n.n.m.m.v.I ! I.E ! f f f l v v v v v v v v v v v v v v v v ",
"b b b b b b b b b b b c f f f Y %XXX`.-X).+X,X<XOX(.x.z.V.B.N.M.n.n.v.v.v.n.k L T.W.T.{.f f f z b b b b b b b b b b b b b b b b ",
"b b b b b b b b b b b c f f f ! &X;X=X=X-X:X>X<X].(.!.v.N.M.m.m.v.v.v.k.m.f.w ~.).W.S c f f f z b b b b b b b b b b b b b b b b ",
"b b b b b b b b b b b c f f f '.x.$X%X%X-X-X:X,X;X>XJ.g.h.m.m.b.v.v.v.m.k { %. .b 4.v c f f f z b b b b b b b b b b b b b b b b ",
"b b b b b b b b b b v c f f f l J.I.$X=X=X=X:X=X,X(.B 3 3 k.b.m.M.v.f.y  .#.&.*.o.b b c f f f z b b b b b b b b b b b b b b b b ",
"b b b b b b b b b b b c f f f l v E.P _.#X=X=X@XT.Z } } i 3 , k w p ] ..o.@.&.=.=.J b c f f f l b b b b b b b b b b b b b b b b ",
"b b b b b b b b b b b c f f f z b b b ).V A A A s [ [ }  .@.%.} 8 ] } X.X.+.%.%.=.} b c f f f l b b b b b b b b b b b b b b b b ",
"b b b b b b b b b b v c f f f z b b b b 7 p p p s s [ } o.%.%.=.%.q [ ..X.+.%.%.%.[ b c f f f l b b b b b b b b b b b b b b b b ",
"b b b b b b b b b b b c f f f z b b b G s ] ' ' ] ] {  .o.%.*.*.=.X.p } ..X.@.@.@.s c c f f f l b b b b b b b b b b b b b b b b ",
"b b b b b b b b b b b c f f f z b b b 7 ' ' ' ' ' ] { { ..@.%.*.=.&.i  . ...X.o.o.3.v c f f f l b b b b b b b b b b b b b b b b ",
"b b b b b b v b b b b c f f f z b b b q ' ' ' ' ' ] {  .o.o.%.%.=.*.i } } }  ...] Q b c f f f l b b b b b b b b b b b b b b b b ",
"v v v v v v v v v v v c f f f z b b b 7 ' ' ' ' ' ] { } ..o.@.%.&.#.i { [ ' s 3.F > v c f f f l v v v v v v v v v v v v v v v v ",
"h h h h h h h h h h h h f f f f f h h * p ' ' ' ' ] ] {  .X.X.&.@.' r.}.XXoX*X*X!.h h f f f f h h h h h h h h h h h h h h h h h ",
"f f f f f f f f f f f f f f f f f f f + XX!.3.>.R d ] { { { ' H 4.U XXoXoXXX!.2.f f f f f f f f f f f f f f f f f f f f f f f f ",
"f f f f f f f f f f f f f f f f f f f + }.*X*X*X*X*XoXXXXXoX&X*X*XQ.f f f f h f f f f f f f f f f f f f f f f f f f f f f f f f ",
"f f f f f f f f f f f f f f f f f f f f + J !.XXXX!.!.}.!.!.Q.3.e h f f f f f f f f f f f f f f f f f f f f f f f f f f f f f f "
};
