/* XPM */
static char *result[] = {
/* columns rows colors chars-per-pixel */
"64 64 169 2 ",
"   c #120E09",
".  c #1D1D1D",
"X  c #34130F",
"o  c #210C10",
"O  c #2A1A1B",
"+  c #391410",
"@  c #3F1711",
"#  c #2F220F",
"$  c #312410",
"%  c #392A15",
"&  c #361A20",
"*  c #222121",
"=  c #252525",
"-  c #2A2A2A",
";  c #3D2430",
":  c gray19",
">  c gray21",
",  c #313039",
"<  c #3B3A3B",
"1  c #4D180F",
"2  c #40161F",
"3  c #422110",
"4  c #4A2410",
"5  c #423318",
"6  c #421821",
"7  c #492021",
"8  c #5B2C23",
"9  c #50292A",
"0  c #413425",
"q  c #4E3E22",
"w  c #5B3C38",
"e  c #683724",
"r  c #753F23",
"t  c #5C4A27",
"y  c #6D5231",
"u  c #7B5F3C",
"i  c #083847",
"p  c #083949",
"a  c #083A49",
"s  c #3E3E41",
"d  c #292C69",
"f  c #0E5D76",
"g  c #0E5E77",
"h  c #0E5F78",
"j  c #444445",
"k  c #4B4B4B",
"l  c #484B58",
"z  c #4A4D5A",
"x  c #535253",
"c  c #5A5A5B",
"v  c #674B48",
"b  c #745B57",
"n  c #545764",
"m  c #5F616D",
"M  c #626262",
"N  c #686868",
"B  c #6C6C6F",
"V  c #7E6763",
"C  c #727273",
"Z  c #777779",
"A  c #7D7D7F",
"S  c #B72A0F",
"D  c #883A35",
"F  c #CC1D05",
"G  c #D01F06",
"H  c #C72D10",
"J  c #E02A0B",
"K  c #CC3331",
"L  c #814721",
"P  c #824721",
"I  c #854921",
"U  c #884B21",
"Y  c #8C4E22",
"T  c #8E5022",
"R  c #8F5123",
"E  c #915324",
"W  c #935525",
"Q  c #955826",
"!  c #985B27",
"~  c #9A5F29",
"^  c #9D612A",
"/  c #9F642B",
"(  c #A2682D",
")  c #A56B2E",
"_  c #A86F30",
"`  c #AA7231",
"'  c #B63448",
"]  c #8B6D45",
"[  c #9B7B4D",
"{  c #88736C",
"}  c #907D78",
"|  c #F5795E",
" . c #BBA035",
".. c #D0B43C",
"X. c #E4B734",
"o. c #E7BC36",
"O. c #EAC139",
"+. c #EDC63C",
"@. c #A98856",
"#. c #B7945D",
"$. c #F9916F",
"%. c #C5A065",
"&. c #D3AC6D",
"*. c #F0CC41",
"=. c #F1D04A",
"-. c #EDD46A",
";. c #EAD47D",
":. c #243094",
">. c #2E3AAC",
",. c #293BBF",
"<. c #7F3783",
"1. c #6039A8",
"2. c #3B4181",
"3. c #283CC3",
"4. c #283CC6",
"5. c #273CCD",
"6. c #283CC9",
"7. c #263CD3",
"8. c #263CD8",
"9. c #253CDD",
"0. c #253CE2",
"q. c #243CE6",
"w. c #243CEA",
"e. c #233CEF",
"r. c #223CF4",
"t. c #223CF8",
"y. c #213CFC",
"u. c #213CFE",
"i. c #838385",
"p. c #8B8B8C",
"a. c #9B8982",
"s. c #939394",
"d. c #9B9B9C",
"f. c #A59590",
"g. c #B6A18E",
"h. c #A4A3A3",
"j. c #AAA9A9",
"k. c #ADAEAD",
"l. c #B2B1B2",
"z. c #B8B7B7",
"x. c #BEBDBD",
"c. c #C6B29E",
"v. c #FAA384",
"b. c #FBB49E",
"n. c #E7D590",
"m. c #D4C3AC",
"M. c #E3D5A4",
"N. c #E0D4B5",
"B. c #C3C2C3",
"V. c #C9C8C8",
"C. c #D0CFCF",
"Z. c #D6D5D5",
"A. c #DBDADA",
"S. c #DFDDDF",
"D. c #EEE0C5",
"F. c #F8ECCE",
"G. c #E2DFE1",
"H. c #E3E1E3",
"J. c #E5E3E5",
"K. c #E7E5E7",
"L. c #E9E7E9",
"P. c #EBE9EB",
"I. c #EEEAEE",
"U. c #F0EDF0",
"Y. c #F2EFF2",
"T. c #F3F0F3",
"R. c #F5F1F5",
"E. c #F4F2F4",
"W. c #F7F3F7",
/* pixels */
"h h h h h h h h h h h h h h h h h h h h h h h h h h h g a : - ; w 0 h < < k h h h h h h h h h h h h h h h h h h h h h g a i i i ",
"h h h h h h h h h h h h h h h h h h h h h h h h h h % & ; & O 0 0 0 w 0 0 j k h h h h h h h h h h h h h h h h h h h h g a i i i ",
"h h h h h h h h h h h h h h h h h h h h h h h h h h & ; & 0 # 0 0 0 % O % 0 0 0 w k h h h h h h h h h h h h h h h h h g a i i i ",
"h h h h h h h h h h h h h h h h h h h h h h h h h : O & O & O O O & & O O 0 0 0 < s 0 h h h h h h h h h h h h h h h h g a i i i ",
"h h h h h h h h h h h h h h h h h h h h h h h O O o o 0 0 $ o o O O & O O % $ % 0 0 < s h h h h h h h h h h h h h h h g a i i i ",
"h h h h h h h h h h h h h h h h h h h h h h O O o O O O 0 0 % $ $ $ 0 0 % $ # % % 0 0 k h h h h h h h h h h h h h h h g a i i i ",
"h h h h h h h h h h h h h h h h h h h h h h O O o o & O O O O % 7 7 w % % # $ % % 0 0 w j h h h h h h h h h h h h h h g a i i i ",
"h h h h h h h h h h h h h h h h h h h h h O O o o O O o O o O % 0 % % % % 0 0 % % % % q w w h h h h h h h h h h h h h g a i i i ",
"h h h h h h h h h h h h h h h h h h h h h * O o o O o O 0 X X X @ X 3 7 0 % 5 q 9 5 5 0 q w c h h h h h h h h h h h h g a i i i ",
"h h h h h h h h h h h h h h h h h h h h h O o o O O & % q 7 7 8 e e r y r e e y y y q 0 0 w v h h h h h h h h h h h h g a i i i ",
"h h h h h h h h h h h h h h h h h h h h = o   o O # % e u ] u D u Q ] u u D u u [ @.u 0 0 0 n h h h h h h h h h h h h g a i i i ",
"g g g g g g g g g g g g g g g g g g g g *     o o 7 e u [ [ [ [ ~ #.[ ] ] u u [ &.%.@.y 0 < @ Z g g g g g g g g g g g f p i i i ",
"a a a a a a a a a a a a a a a a a a a a a   o & @ e ] [ #.[ @.#._ %.#.@.@.[ @.&.v.$.$.] 0 j + w a a a a a a a a a a a p i i i i ",
"i i i i i i i i i i i i i i i i i i i i i o o 7 8 ] [ #.#.| $.| $.v.v.| #.v.b.b.v.$.&.[ q + + h.i i i i i i i i i i i i i i i i ",
"i i i i i i i i i i i i i i i i i i i i . o # 8 e ] #.#.%.$.$.v.v.v.v.$.v.v.v.v.v.v.&.%.w + d.i i i i i i i i i i i i i i i i i ",
"a a a a a a a a a a a p i i i i p a a a   o 7 e y [ @.@.#.%.$.v.v.v.$.v.v.v.b.v.v.v.v.%.w i i i p a a a a a a a a a a a a a a a ",
"g g g g g g g g g g g f p i i p f g g g o X 8 w 8 9 8 9 4 7 y @.$.v.v.v.v.v.b.b.v.v.v.%.v i i p f g g g g g g g g g g g g g g g ",
"h h h h h h h h h h h g a i i a g h h h o 7 e e 7 w u ] u w 8 D #.$.%.@.[ u [ @.&.v.v.%.v i i a g h h h h h h h h h h h h h h h ",
"h h h h h h h h h h h g a i i a g h h h o 9 e e y u e e u ] e e @.$.$.#.[ u u u u #.v.&.v i i a g h h h h h h h h h h h h h h h ",
"h h h h h h h h h h h g a i i a g h h h o 8 r u ] e e w r #.y e #.v.$.@.D u [ [ @.] %.%.M i i a g h h h h h h h h h h h h h h h ",
"h h h h h h h h h h h g a i i a g h h 9 X w y [ @.@.] [ @.@.] L %.v.$.[ r 7 u ] @.#.%.#.a i i a g h h h h h h h h h h h h h h h ",
"h h h h h h h h h h h g a i i a g h 7 7 7 w u [ | | #.#.#.@.u D $.v.v.#.[ [ @.] @.&.v.@.a i i a g h h h h h h h h h h h h h h h ",
"h h h h h h h h h h h g a i i a g h 2 e 9 w D [ | | | | | @.Q ! $.v.v.v.%.%.$.$.$.v.v.@.a i i a g h h h h h h h h h h h h h h h ",
"h h h h h h h h h h h g a i i a g h 8 8 9 w D [ @.| $.| | @.E ( $.v.v.v.v.v.v.v.v.v.v.#.a i i a g h h h h h h h h h h h h h h h ",
"h h h h h h h h h h h g a i i a g h e 9 9 w y ] @.| $.$.| D D [ $.v.v.v.v.v.v.v.v.v.v.@.a i i a g h h h h h h h h h h h h h h h ",
"h h h h h h h h h h h g a i i a g h y 8 8 w y u @.| | $.^ r D @.$.v.v.$.v.v.v.v.v.v.&.| a i i a g h h h h h h h h h h h h h h h ",
"h h h h h h h h h h h g a i i a g h h e 9 w y u @.#.| | ~ r 1 D #.$.| $.$.v.v.v.v.v.&.$.a i i a g h h h h h h h h h h h h h h h ",
"g g g g g g g g g g g f p i i p f g g e 9 w w u [ #.| #.@.] D r [ %.%.$.$.$.v.v.v.v.$.$.p i i p f g g g g g g g g g g g g g g g ",
"a a a a a a a a a a a p i i i i p a a a a e w u [ @.@.[ [ @.@.#.#.%.$.$.v.$.v.v.v.v.&.h.i i i i p a a a a a a a a a a a a a a a ",
"i i i i i i i i i i i i i i i i i i i i i w y u ] [ @.[ D D ^ ` | $.$.$.$.$.$.v.v.v.&.i i i i i i i i i i i i i i i i i i i i i ",
"i i i i i i i i i i i i i i i i i i i i i q w y u [ @.[ D D ' ' ' ' @.#.#.%.$.v.v.&.v.i i i i i i i i i i i i i i i i i i i i i ",
"a a a a a a a a a a a a a a a a a a a a a q w y y [ @.@.( ) @.| | | | @.[ %.v.&.&.%.#.a a a a a a a a a a a a a a a a p i i i i ",
"g g g g g g g g g g g g g g g g g g g g g g w y y ] [ [ [ @.[ _ #.| $.v.%.&.&.&.&.g g g g g g g g g g g g g g g g g g f p i i i ",
"h h h h h h h h h h h h h h h h h h h h h h w t y u [ [ @.#.#.%.$.$.v.v.$.&.&.&.#.h h h h h h h h h h h h h h h h h h g a i i i ",
"h h h h h h h h h h h h h h h h h h h h h h 9 e y y ] ] @.#.#.$.v.v.v.v.$.&.&.%.h h h h h h h h h h h h h h h h h h h g a i i i ",
"h h h h h h h h h h h h h h h h h h h h h h 9 8 w y y u [ @.%.$.v.v.v.&.&.&.%.h h h h h h h h h h h h h h h h h h h h g a i i i ",
"h h h h h h h h h h h h h h h h h h h h h H F 8 8 w e e u ] @.#.%.&.%.%.%.%.h h h h h h h h h h h h h h h h h h h h h g a i i i ",
"h h h h h h h h h h h h h h h h h h h h D G F G 8 8 e w e y ] [ @.#.@.@.#.<.p.A.h h h h h h h h h h h h h h h h h h h g a i i i ",
"h h h h h h h h h h h h h h h h h h h h D ' K H S 8 8 e y y u u ] [ [ [ u.u.m M.m.h h h h h h h h h h h h h h h h h h g a i i i ",
"h h h h h h h h h h h h h h h h h h A p.z.B.k.A v K J ' r.r.,.g.N.m.s.y.u.u.p.;.-.Z.h h h h h h h h h h h h h h h h h g a i i i ",
"h h h h h h h h h h h h h h h h h m V.U.Y.T.R.R.l.z K 1.t.w.%.n.;.;.;.1.y.u.1.=.+.#.Z.h h h h h h h h h h h h h h h h g a i i i ",
"h h h h h h h h h h h h h h h h h.l.P.I.U.T.T.R.R.Z 2.y.y.,.=.=.=.=.=.f.y.y.w...O. .Z l.h h h h h h h h h h h h h h h g a i i i ",
"h h h h h h h h h h h h h h h h m B.K.P.U.U.T.R.H.s.2.y.y.,.*.+.+.+.+.g.y.t.t.p.o. .k.C h h h h h h h h h h h h h h h g a i i i ",
"g g g g g g g g g g g g g g g g B S.K.P.I.U.Y.E.R.T.l.4.y.8...o.O.O.O.p.t.r.r.w.a.#.k.d.h.g g g g g g g g g g g g g g f p i i i ",
"a a a a a a a a a a a a a a a x.z.H.H.K.P.I.U.T.R.R.W.h.w.y.Z X.X.X.@.0.e.e.e.e.,.s.k.h.i.a a a a a a a a a a a a a a p i i i i ",
"i i i i i i i i i i i i i i i i.A.V.l.K.x.C.U.Y.T.R.W.Z.>.t.e.1.{ m 8.w.q.q.q.q.:.j.k.d.d.i i i i i i i i i i i i i i i i i i i ",
"i i i i i i i i i i i i i i i A S.j.p.J.s.j.I.U.T.Y.W.Z.2.r.e.e.w.q.0.0.9.9.8.7.B k.k.N C.i i i i i i i i i i i i i i i i i i i ",
"a a a a a a a a a a a p i i i i.S.d.Z J.i.d.I.U.P.G.Y.s.4.w.w.q.0.9.8.7.7.7.7.:.Z p.C Z i i i i p a a a a a a a a a a a a a a a ",
"g g g g g g g g g g g f p i i N S.x.l.H.k.B.P.I.B.j.A 2.w.q.9.8.8.7.5.5.6.6.4.M s.d.s.x.p i i p f g g g g g g g g g g g g g g g ",
"h h h h h h h h h h h g a i i Z V.S.S.G.H.K.L.I.z.j.s.,.0.9.8.7.5.6.4.4.3.5.d h.k.d.c g a i i a g h h h h h h h h h h h h h h h ",
"h h h h h h h h h h h g a i i x.A A.S.S.G.J.K.P.J.J.Z 7.8.7.5.6.4.3.3.,.6.:.9 ; , A h g a i i a g h h h h h h h h h h h h h h h ",
"h h h h h h h h h h h g a i i a i.p.A.S.G.H.J.K.P.j.l >.>.6.4.3.3.,.3.6.d Y ( E h h h g a i i a g h h h h h h h h h h h h h h h ",
"h h h h h h h h h h h g a i i a g d.B l.Z.G.H.C.s.z 9 6 6 3.5.5.7.3.:.w E / ) _ ~ h h g a i i a g h h h h h h h h h h h h h h h ",
"h h h h h h h h h h h g a i i a g h h k.l x x x v I Y R e & , d 9 r U W ! / ) _ ` b h g a i i a g h h h h h h h h h h h h h h h ",
"h h h h h h h h h h h g a i i a g h h h 6 r L P I U Y E E ^ / R 7 L R W ! ^ ( ) _ Y h g a i i a g h h h h h h h h h h h h h h h ",
"h h h h h h h h h h h g a i i a g h h h 7 r r r r L U E ! / ) ` ( 8 Y E Q ~ / ( ( Y h g a i i a g h h h h h h h h h h h h h h h ",
"h h h h h h h h h h h g a i i a g h h v r L L L P I Y E ! / ) ` ` Q r R W ! ~ ^ ^ r h g a i i a g h h h h h h h h h h h h h h h ",
"h h h h h h h h h h h g a i i a g h h 7 P L L L P I Y R Q ^ ) _ ` _ e R E W Q ! ! { h g a i i a g h h h h h h h h h h h h h h h ",
"h h h h h h h h h h h g a i i a g h h 8 L L L L P I Y R Q ~ / ) _ _ e T R E E W I Z h g a i i a g h h h h h h h h h h h h h h h ",
"g g g g g g g g g g g f p i i p f g g 7 P L L P P I Y T W ! ^ ( ) / e Y Y P r { v > g f p i i p f g g g g g g g g g g g g g g g ",
"a a a a a a a a a a a p i i i i p a a & r L L P P I U Y E Q ! ~ / L a.c.m.N.F.F.g.a a p i i i i p a a a a a a a a a a a a a a a ",
"i i i i i i i i i i i i i i i i i i i & m.g.{ ] V u P Y T Y L u } b m.N.N.m.g.{ i i i i i i i i i i i i i i i i i i i i i i i i ",
"i i i i i i i i i i i i i i i i i i i O c.F.F.F.F.F.N.m.m.N.D.F.F.f.i i i i i i i i i i i i i i i i i i i i i i i i i i i i i i ",
"i i i i i i i i i i i i i i i i i i i i O b g.m.m.g.g.c.g.g.f.{ 0 i i i i i i i i i i i i i i i i i i i i i i i i i i i i i i i "
};
