/* XPM */
static char *result[] = {
/* columns rows colors chars-per-pixel */
"64 64 115 2 ",
"   c black",
".  c #010000",
"X  c #010001",
"o  c #010101",
"O  c #020001",
"+  c #020101",
"@  c #030101",
"#  c #000002",
"$  c #010003",
"%  c #030103",
"&  c #020202",
"*  c #040101",
"=  c #040103",
"-  c #010004",
";  c #010104",
":  c #040104",
">  c #02161E",
",  c #041B23",
"<  c #041B24",
"1  c #0D1F27",
"2  c #182227",
"3  c #032834",
"4  c #032835",
"5  c #042935",
"6  c #052B37",
"7  c #062B37",
"8  c #052C38",
"9  c #16303B",
"0  c #18303A",
"q  c #6B5413",
"w  c #6C5410",
"e  c #6C5411",
"r  c #053240",
"t  c #063240",
"y  c #0F3441",
"u  c #083847",
"i  c #083949",
"p  c #083A49",
"a  c #09495E",
"s  c #094A5E",
"d  c #184C60",
"f  c #184D60",
"g  c #0E5D76",
"h  c #0E5E77",
"j  c #0E5F78",
"k  c #737271",
"l  c #727272",
"z  c #8B6808",
"x  c #8A680B",
"c  c #C6960F",
"v  c #C49614",
"b  c #C59715",
"n  c #D9A50E",
"m  c #D9A50F",
"M  c #DAA50E",
"N  c #D7A514",
"B  c #D8A414",
"V  c #E6AE06",
"C  c #E7AE06",
"Z  c #E6AE07",
"A  c #E5AE0E",
"S  c #FBBF0E",
"D  c #FBBF0F",
"F  c #FCBF0D",
"G  c #FBBF10",
"H  c #FBBF11",
"J  c #FDC006",
"K  c #FDC007",
"L  c #FCC008",
"P  c #FDC008",
"I  c #FCC009",
"U  c #FDC009",
"Y  c #FCC00A",
"T  c #FDC00A",
"R  c #FCC00F",
"E  c #FCC011",
"W  c #FCC012",
"Q  c #FCC013",
"!  c #FBC014",
"~  c #FDCD61",
"^  c #FCCD62",
"/  c #FDCD62",
"(  c #FCCD64",
")  c #8B8B8B",
"_  c #8C8C89",
"`  c gray55",
"'  c gray66",
"]  c #FBD387",
"[  c #FBD389",
"{  c #F9D28A",
"}  c #F9DBA6",
"|  c #FADCA6",
" . c #FBDCA6",
".. c #C9C8C4",
"X. c #C8C8C8",
"o. c #FDEFD2",
"O. c #FCEFD6",
"+. c #E7E7E7",
"@. c #E8E7E3",
"#. c #FBF4E2",
"$. c #FAF4E5",
"%. c #FEFEF7",
"&. c #FDFEF8",
"*. c #FEFEF8",
"=. c #FEFEF9",
"-. c #FDFDFB",
";. c #FEFEFB",
":. c #FCFDFC",
">. c #FDFDFC",
",. c #FDFDFD",
"<. c #FDFEFC",
"1. c #FDFEFD",
"2. c #FEFEFC",
"3. c #FEFEFD",
"4. c #FEFEFE",
/* pixels */
"j j j j j j j j j j j j j j j j j j j j j j j j j j j h p u u p h j j j j j j j j j j j j j j j j j j j j j j j j j j h p u u u ",
"j j j j j j j j j j j j j j j j j j j t o o o o o o o o o o o o o o o o o o o o o o o o o o t j j j j j j j j j j j j h p u u u ",
"j j j j j j j j j j j j j j j j j j j r                                                     r j j j j j j j j j j j j h p u u u ",
"j j j j j j j j j j j j j j j j j j j r                                                     r j j j j j j j j j j j j h p u u u ",
"j j j j j j j j j j j j j j j j j j j y         o o o o o o o o o o o o o                   y j j j j j j j j j j j j h p u u u ",
"j j j j j j j j j j 5 o o o o o o o o         l ,.,.,.,.,.,.,.,.,.,.,.,.,.X.                  o o o o o o o o 5 j j j h p u u u ",
"j j j j j j j j j j 4                         l 4.4.4.4.4.4.4.4.4.4.4.4.4.X.                                  4 j j j h p u u u ",
"j j j j j j j j j j 4                         l 4.4.4.4.4.4.4.4.4.4.4.4.4.X.                                  4 j j j h p u u u ",
"j j j j j j j j j j 0         o o o o o o o o k =.=.=.=.=.=.=.=.=.=.=.=.=...@ @ @ @ @ @ @ @ O                 4 j j j h p u u u ",
"j j j j j s o o o o         ) ,.,.,.,.,.,.,.,.$.Q W W W W W W W W W W W W E D D D D D D D G B X               4 j j j h p u u u ",
"j j j j j s                 ` 4.4.4.4.4.4.4.4.$.K J J J J J J J J J J J J J J J J J J J J K m X               4 j j j h p u u u ",
"h h h h h a                 ` 4.4.4.4.4.4.4.4.$.K J J J J J J J J J J J J J J J J J J J J K m X               3 h h h g i u u u ",
"p p p p p 8         o o o o _ =.=.=.=.=.=.=.=.#.Q W W W W W W W W W W W W E D D D D K J J K n * @ @ @ .       2 p p p i u u u u ",
"u u u u u 6         +.,.,.>.O.! W W W W W W W ^ &.=.=.=.=.=.=.=.=.=.=.=.=...@ @ @ = Z J J J I D D D H x         o o o o 7 u u u ",
"u u u u u 6         +.4.4.3.O.L J J J J J J J ~ <.4.4.4.4.4.4.4.4.4.4.4.4.X.      $ Z J J J J J J J P z                 6 u u u ",
"p p p p p 8         +.4.4.3.O.L J J J J J J J ~ <.4.4.4.4.4.4.4.4.4.4.4.4.X.      $ Z J J J J J J J P z                 8 p p p ",
"h h h h h d         +.4.4.3.O.L J J J J J J J ~ <.4.4.4.;.=.=.=.=.=.=.=.=...      $ Z J J J J J J J P z                 a h h h ",
"j & o o o           +.4.4.3.O.L J J J J J J J ~ <.4.4.3.| W W W W W W W W b #     $ Z J J J J J J J P z                 s j j j ",
"j o                 +.4.4.3.O.L J J J J J J J ~ <.4.4.1. .J J J J J J J J c #     $ Z J J J J J J J P z                 s j j j ",
"j o                 +.4.4.3.O.L J J J J J J J ~ <.4.4.1. .J J J J J J J J c #     $ Z J J J J J J J P z                 s j j j ",
"j o         o o o o @.=.=.*.o.L J J J J J J J ~ <.4.4.1. .J J J J J J J J c #     $ Z J J J J J J J P z @ @ @ @         f j j j ",
"j o       ' ,.,.,.:.( W W W R J J J J J J J J ~ <.4.4.1. .J J J J J J J J c #     $ Z J J J J J J J J F D D D A $         o o o ",
"j o       ' 4.4.4.<./ J J J J J J J J J J J J ~ <.4.4.1. .J J J J J J J J c #     $ Z J J J J J J J J J J J J C -               ",
"j o       ' 4.4.4.<./ J J J J J J J J J J J J ~ <.4.4.1. .J J J J J J J J c #     $ Z J J J J J J J J J J J J C -               ",
"j o       ' 4.4.4.<./ J J J J J J J J J J J J ~ <.4.4.1. .J J J J J J J J c #     $ Z J J J J J J J J J J J J C -               ",
"j o       ' 4.4.4.<./ J J J J J J J J J J J J ~ <.4.4.1. .J J J J J J J J c #     $ Z J J J J J J J J J J J J C -               ",
"j o       ' 4.4.4.<./ J J J J J J J J J J J J ~ <.4.4.1. .J J J J J J J J c #     $ Z J J J J J J J J J J J J C -               ",
"h o       ' 4.4.4.<./ J J J J J J J J J J J J ~ <.4.4.1. .J J J J J J J J c #     $ Z J J J J J J J J J J J J C -               ",
"p o       ' 4.4.4.<./ J J J J J J J J J J J J ~ <.4.4.1. .J J J J J J J J c #     $ Z J J J J J J J J J J J J C -               ",
"u o       ' 4.4.4.<./ J J J J J J J J J J J J ~ <.4.4.1. .J J J J J J J J c #     $ Z J J J J J J J J J J J J C -               ",
"u o       ' 4.4.4.<./ J J J J J J J J J J J J ~ <.4.4.1. .J J J J J J J J c #     $ Z J J J J J J J J J J J J C -               ",
"p o       ' 4.4.4.<./ J J J J J J J J J J J J ~ <.4.4.1. .J J J J J J J J c #     $ Z J J J J J J J J J J J J C -               ",
"h o       ' 4.4.4.<./ J J J J J J J J J J J J ~ <.4.4.1. .J J J J J J J J c #     $ Z J J J J J J J J J J J J C -               ",
"j o       ' 4.4.4.<./ J J J J J J J J J J J J ~ <.4.4.1. .J J J J J J J J c #     $ Z J J J J J J J J J J J J C -               ",
"j o       ' 4.4.4.<./ J J J J J J J J J J J J ~ <.4.4.1. .J J J J J J J J c #     $ Z J J J J J J J J J J J J C -               ",
"j o       ' 4.4.4.<./ J J J J J J J J J J J J ~ <.4.4.1. .J J J J J J J J c #     $ Z J J J J J J J J J J J J C -               ",
"j o       ' 4.4.4.<./ J J J J J J J J J J J J ~ <.4.4.1. .J J J J J J J J c #     $ Z J J J J J J J J J J J J C -               ",
"j o       ' 4.4.4.<./ J J J J J J J J J J J J ~ <.4.4.1. .J J J J J J J J c #     $ Z J J J J J J J J J J J J C -               ",
"j o       ' 4.4.4.<./ J J J J J J J J J J J J ~ <.4.4.1. .J J J J J J J J c #     $ Z J J J J J J J J J J J J C -               ",
"j o       ' 4.4.4.<./ J J J J J J J J J J J J ~ <.4.4.1. .J J J J J J J J c #     $ Z J J J J J J J J J J J J C -               ",
"j o       ' 4.4.4.<./ J J J J J J J J J J J J ~ <.4.4.1. .J J J J J J J J c #     $ Z J J J J J J J J J J J J C -               ",
"j o       ' 4.4.4.<./ J J J J J J J J J J J J ~ <.4.4.1. .J J J J J J J J c #     $ Z J J J J J J J J J J J J C -               ",
"j o       ' 4.4.4.<./ J J J J J J J J J J J J ~ <.4.4.1. .J J J J J J J J c #     $ Z J J J J J J J J J J J J C -               ",
"h o       ' 4.4.4.<./ J J J J J J J J J J J J ~ <.4.4.1. .J J J J J J J J c #     $ Z J J J J J J J J J J J J C -               ",
"p o       ' ,.,.,.:.( W W W R J J J J J J J J ~ <.4.4.1. .J J J J J J J J c #     $ Z J J J J J J J J F D D D A $         o o o ",
"u o         o o o o @.=.=.*.o.L J J J J J J J ~ <.4.4.1. .J J J J J J J J c #     $ Z J J J J J J J P z @ @ @ @         9 u u u ",
"u o                 +.4.4.3.O.L J J J J J J J ~ <.4.4.1. .J J J J J J J J c #     $ Z J J J J J J J P z                 6 u u u ",
"p o                 +.4.4.3.O.L J J J J J J J ~ <.4.4.1. .J J J J J J J J c #     $ Z J J J J J J J P z                 8 p p p ",
"h & o o o           +.4.4.3.O.L J J J J J J J ~ :.,.,.,.} D D D D D D D D v #     $ Z J J J J J J J P z                 a h h h ",
"j j j j j f         +.4.4.3.O.L J J J J J J J C ; o o o + @ @ @ @ @ @ @ @ O       $ Z J J J J J J J P z                 s j j j ",
"j j j j j s         +.4.4.3.O.L J J J J J J J C -                                 $ Z J J J J J J J P z                 s j j j ",
"j j j j j s         +.4.4.3.O.L J J J J J J J C -                                 $ Z J J J J J J J P z                 s j j j ",
"j j j j j s         +.,.,.>.O.! W W W T J J J C : @ @ @ @ @ @ @ @ @ @ @ @ @ @ @ @ = V J J J U D D D H x         o o o o s j j j ",
"j j j j j s         o o o o _ =.=.=.%.] J J J K D D D D D D D D D D D D D D D D D D K J J K M * @ @ @ .       0 j j j j j j j j ",
"j j j j j s                 ` 4.4.4.2.[ J J J J J J J J J J J J J J J J J J J J J J J J J K m X               4 j j j j j j j j ",
"j j j j j s                 ` 4.4.4.2.[ J J J J J J J J J J J J J J J J J J J J J J J J J K m X               4 j j j j j j j j ",
"j j j j j s o o o o         ) ,.,.,.-.{ D D D S J J J J J J J J J J J J J Y G D D D D D D G N X               4 j j j j j j j j ",
"j j j j j j j j j j 0         o o o o @ @ @ @ w K J J J J J J J J J J J J c % @ @ @ @ @ @ @ +                 4 j j j j j j j j ",
"j j j j j j j j j j 4                         e K J J J J J J J J J J J J c #                                 4 j j j j j j j j ",
"h h h h h h h h h h 3                         e K J J J J J J J J J J J J c #                                 3 h h h h h h h h ",
"p p p p p p p p p p > o o o o o o o o         q G D D D D D D D D D D D D v #                 o o o o o o o o > p p p p p p p p ",
"u u u u u u u u u u u u u u u u u u u 1       . @ @ @ @ @ @ @ @ @ @ @ @ @ O                 1 u u u u u u u u u u u u u u u u u ",
"u u u u u u u u u u u u u u u u u u u <                                                     < u u u u u u u u u u u u u u u u u ",
"u u u u u u u u u u u u u u u u u u u ,                                                     , u u u u u u u u u u u u u u u u u "
};
