/* XPM */
static char *ca25623679084a14af15a8a5255f65b7vatyHc56BBZuEjNn[] = {
/* columns rows colors chars-per-pixel */
"64 64 246 2 ",
"   c #0E0C0D",
".  c #150F06",
"X  c #140D0C",
"o  c #1A0D0C",
"O  c #1B1206",
"+  c #16110B",
"@  c #1C130C",
"#  c #160D11",
"$  c #1C1312",
"%  c #1B1719",
"&  c #23150B",
"*  c #29160D",
"=  c #25190E",
"-  c #2A1B0D",
";  c #301F0E",
":  c #221613",
">  c #261517",
",  c #241A14",
"<  c #2B1C13",
"1  c #251B1A",
"2  c #2A1D1A",
"3  c #321D14",
"4  c #331C18",
"5  c #2D200E",
"6  c #34210F",
"7  c #2E2114",
"8  c #2D221B",
"9  c #2F281B",
"0  c #332215",
"q  c #3B2515",
"w  c #372A10",
"e  c #3D2916",
"r  c #33251B",
"t  c #3C251A",
"y  c #34291D",
"u  c #3C2A1B",
"i  c #3F311E",
"p  c #1C1D25",
"a  c #251C22",
"s  c #1C2529",
"d  c #1C2E37",
"f  c #292627",
"g  c #352B23",
"h  c #352927",
"j  c #3B2C23",
"k  c #3D3125",
"l  c #35312C",
"z  c #3C322B",
"x  c #2C2C34",
"c  c #29343A",
"v  c #3A393A",
"b  c #402616",
"n  c #432C16",
"m  c #43261B",
"M  c #432C1B",
"N  c #492D1C",
"B  c #57291B",
"V  c #44311E",
"C  c #4A351B",
"Z  c #4C321D",
"A  c #52341F",
"S  c #55391E",
"D  c #422E22",
"F  c #472B26",
"G  c #562E24",
"H  c #433224",
"J  c #4B3424",
"K  c #4C3A23",
"L  c #45352A",
"P  c #4A362A",
"I  c #45382A",
"U  c #4D3A2C",
"Y  c #533521",
"T  c #553B23",
"R  c #5B3C25",
"E  c #593728",
"W  c #533D2A",
"Q  c #453A34",
"!  c #4C3C31",
"~  c #523D31",
"^  c #593C32",
"/  c #613D26",
"(  c #683827",
")  c #643D2A",
"_  c #723927",
"`  c #683A32",
"'  c #584328",
"]  c #5B432A",
"[  c #4B4239",
"{  c #594537",
"}  c #67432A",
"|  c #634A2D",
" . c #76452D",
".. c #6C4333",
"X. c #634D33",
"o. c #674837",
"O. c #734934",
"+. c #7B4B34",
"@. c #774838",
"#. c #685338",
"$. c #6C543A",
"%. c #79543B",
"&. c #0A3745",
"*. c #083847",
"=. c #083A49",
"-. c #183845",
";. c #123B49",
":. c #1C3C4A",
">. c #263A45",
",. c #373D45",
"<. c #2F3F51",
"1. c #483E43",
"2. c #1D4658",
"3. c #2A424D",
"4. c #3A444A",
"5. c #284858",
"6. c #384C58",
"7. c #3A525D",
"8. c #164D63",
"9. c #0C546B",
"0. c #19566B",
"q. c #0E5E77",
"w. c #0E5F78",
"e. c #135D76",
"r. c #1B5D74",
"t. c #125F78",
"y. c #1D5F78",
"u. c #3A4C60",
"i. c #28566A",
"p. c #385768",
"a. c #265D73",
"s. c #355D72",
"d. c #186078",
"f. c #266178",
"g. c #376377",
"h. c #464749",
"j. c #564A46",
"k. c #57534C",
"l. c #494D53",
"z. c #4B5459",
"x. c #575757",
"c. c #694848",
"v. c #6A544C",
"b. c #775A43",
"n. c #7A6144",
"m. c #6F625F",
"M. c #475B6A",
"N. c #5E5F68",
"B. c #58656C",
"V. c #486778",
"C. c #6C6F6F",
"Z. c #803F2D",
"A. c #844B37",
"S. c #8D4934",
"D. c #875536",
"F. c #85533B",
"G. c #8B553C",
"H. c #97573B",
"J. c #A55A3C",
"K. c #9A633F",
"L. c #834C43",
"P. c #895A45",
"I. c #945B42",
"U. c #9B5D43",
"Y. c #9B5A48",
"T. c #A85A41",
"R. c #B75744",
"E. c #886849",
"W. c #93634A",
"Q. c #9B6448",
"!. c #8C6E56",
"~. c #9B6A51",
"^. c #997757",
"/. c #A76749",
"(. c #B6684A",
"). c #B36B4C",
"_. c #AE714A",
"`. c #B6764D",
"'. c #A86B54",
"]. c #B96D54",
"[. c #A87356",
"{. c #B37353",
"}. c #BC7355",
"|. c #BA7859",
" X c #8F746F",
".X c #B27C63",
"XX c #C55B47",
"oX c #C7684E",
"OX c #C56C54",
"+X c #D96B59",
"@X c #C67657",
"#X c #C37B5B",
"$X c #CB7C5B",
"%X c #D27B5C",
"&X c #D7785C",
"*X c #C87C62",
"=X c #D77B61",
"-X c #D47B70",
";X c #E87665",
":X c #998469",
">X c #AF896C",
",X c #BB8267",
"<X c #CC825C",
"1X c #D4835C",
"2X c #DB855E",
"3X c #C88667",
"4X c #DC8463",
"5X c #D58866",
"6X c #D9936D",
"7X c #C98B74",
"8X c #D68B72",
"9X c #CA9375",
"0X c #D89676",
"qX c #E38464",
"wX c #E58B65",
"eX c #EB8B65",
"rX c #E78668",
"tX c #E58C6B",
"yX c #EC8C6A",
"uX c #F38E6A",
"iX c #E6946A",
"pX c #EB936D",
"aX c #F3936D",
"sX c #F5966D",
"dX c #E68E72",
"fX c #F08E77",
"gX c #EC9472",
"hX c #E79876",
"jX c #F39572",
"kX c #F39B74",
"lX c #FA9D74",
"zX c #F69978",
"xX c #FB9D79",
"cX c #DCA17D",
"vX c #E9A479",
"bX c #F4A375",
"nX c #FAA276",
"mX c #F5A37B",
"MX c #FBA17B",
"NX c #F3AB7B",
"BX c #9C7880",
"VX c #9C8A84",
"CX c #CB9B8A",
"ZX c #EA9F81",
"AX c #E8A882",
"SX c #F4A782",
/* pixels */
"w.w.w.w.w.w.w.w.w.w.w.w.w.w.w.w.w.w.w.w.w.w.t.t.r.0.i.5.<.,.c 4.h.! z z h h z l v Q ,.u.a.r.e.q.q.q.q.q.q.q.w.w.w.w.w.9.=.*.*.*.",
"w.w.w.w.w.w.w.w.w.w.w.w.w.w.w.w.w.w.t.r.a.p.u.6.<.c x 8 g z Q ! ^ { U j h F h h h h x >.<.u.M.i.r.e.t.q.q.q.w.w.w.w.w.9.=.=.*.*.",
"w.w.w.w.w.w.w.w.w.w.w.w.w.t.w.w.t.a.i.6.h.j.1.U g k y y g j L { ! F j r 2 > > > : 1 a 1 a x ,.,.<.u.i.y.q.q.q.q.w.w.w.9.*.*.*.*.",
"w.w.w.w.w.w.w.w.w.w.w.w.w.e.y.f.p.l.v z h j t t H I I z j y g g h h 2 2 1 > : # o $ $ $ # # # 4 a a <.i.q.q.q.q.w.w.w.9.*.*.*.*.",
"w.w.w.w.w.w.w.w.q.q.w.d.r.i.u.z.k.[ U J L W P U [ U I H y y 8 2 2 1 > 1 1 $ $ o X X + X X # o # > > p >.8.t.q.q.w.w.w.9.*.*.*.*.",
"w.w.w.w.w.w.w.w.q.q.q.9.5.4.! { { { { { ^ ~ ! ! [ { Q z g g 8 , $ 1 f h g r 1 , $ $ + + X # o # # # % p -.8.q.q.w.w.w.9.*.*.*.*.",
"w.w.w.w.w.w.w.d.0.2.-.d f 8 k H k L I j r g y g y y 9 , : $ : 1 1 1 1 j z F y 2 > $ $ o X X   # # # # # p d :.0.q.w.q.9.*.*.*.*.",
"w.w.w.w.w.w.t.0.5.s 1 % , 1 , 1 8 8 7 , @ $ @ $ @ @ $ % $ 1 8 2 r 4 2 g F F g > : % # # # X X X     # # # # x <.e.q.q.9.*.*.*.*.",
"q.q.w.w.w.a.s.6.c 1 8 9 8 , 8 g j j y 7 2 r < , 7 $ $ , 2 2 2 2 h j h t 2 2 : $ % $ $ # X X X         #   # $ >.0.e.q.9.*.*.*.*.",
"q.e.e.0.e.a.6.v g 9 z z 9 g U [ H H j t D j j r 7 7 y j r y g r 2 2 8 h 2 $ @ o + o o $ o o X X     # # # # # -.i.e.t.9.*.*.*.*.",
"t.r.5.>.:.2.5.v l k [ I k k U U H D J P U P D r < 7 j k k g y y < : $ $ $ $ $ & : 4 3 4 3 3 * * # > # # #   # :.i.e.w.9.*.*.*.*.",
"q.e.a.5.>.c L Q H I U I H H I k D J P ! ~ L u r < r L L H u t 3 3 3 * * 3 3 m G ` @.+.A...) ) G G m m 4 o o % -.9.t.q.9.*.*.*.*.",
"*.*.*.;.:.Q ^ ^ P j j j k ! Q u y F L L F 2 4 4 r j F D m m m m N B G ( ( A.U.'.@X*X$X@X)./.Y.Q.L.%.@.~ y > > p d -.;.&.*.*.*.*.",
">.-.-.-.x z Q U H H L L I ! L y D D P U h r 4 m Y ..@...`  .+.G.Y./.).].@X<X4XiXgXgXiX4X*X#X@X|.].'.P.@.E y 2 : > p >.&.*.*.*.*.",
"c c c f 8 r j D L P H D D U L D ! ^ U D y t G ` P.'..X'./.].*X=XtXdXdXpXpXpXhXhXgXpXwX2X&X<X1X$X#X'.Q.L.) N 4 > # a >.&.*.*.*.*.",
"-.-.d f y r j L U J D D H L P W { o.P m b G @.'.].].].@X5XtXdXkXzXxXlXkXkXkXbXsXpXeXwXwX2X2X1X1X$X)./.P...G t > : > d *.=.=.=.=.",
"t.t.a.5.l y H P P P V J P W { o.{ H m N B _ I.(.].OX1XiXgXbXmXbXbXnXbXkXkXsXkXpXsXiXiX2X2X2X2X2X@X)./.H.+.E F 4 2 > >.i.e.q.q.q.",
"w.e.i.,.g r L P P U W { o.{ ~ J D j N G ( A.T.@X4XgXkXmXxXmXMXMXlXnXlXzXkXkXkXkXiXiXiXwX2X2X<X<X@X(.Q.G.@.) N 4 2 > h 6.a.e.q.q.",
"w.r.7.v g g k H ! { { { { P m q N Y ( @.U.|.3XdXkXMXMXSXMXxXxXxXxXxXxXzXkXkXxXkXsXiXiX6X5X2X<X@X`.T.H.D.@.) F 4 4 2 2 h.M.r.q.w.",
"w.t.r.6.v g k j ! ! P F j t m ^ @.A.Q.|.3X0XzXSXSXMXSXMXMXMXxXxXxXzXxXjXjXjXfXdXdXiX5X6X6X3X#X}./.U.H.D.A.@.E j 3 > a 4.V.a.w.w.",
"w.w.t.u.c z ! L j h g r y F ^ %.P.'.,X3X8X9X8X6X6X6XdXhXkXzXzXlXjXzXdXrX=X-X#X].'.Q.I.G.P.G.G.P.P.G.F.A.F.b.@.G 4 > a <.s.t.t.w.",
"w.w.e.p.v g L Q j r y M J } P.E.W.~.~.~.Q.Y.I.Q./.{.$X2XtXaXsXaXyXyXqX*X]./.U.D.+.%.G.P.P.F.O.} ) ( _ @.A.A.L...m > a >.r.w.w.w.",
"w.w.y.s.l.z g k H D ^ o.O.W.[.[.[.|.,X3X7X7X.X|.|.*X1X4XwXjXzXlXjXqX&X(.T.(.].}.#X|.3X3X,X|.'.P.@...) } @.F.G.@.G 4 a <.M.s.y.t.",
"w.w.y.V.z.L u D M )  X.X.X3X9X9X6X0X6X9X9X,X{././.].$X2XiXjXMXnXzXrXOXH.I.|.@X#X*X|.'.~.Q.U.D.D.@.@.O.O.A.F.F.@.G 4 4 F c.x.M.y.",
"w.w.t.a.s.x.L.Y.c.b.>XZXcXvXvXvX6X5X3X,X.Xb.` ` Q.].oX1XpXbXbXnXjXqX(.J.H.}.}.3X7X~.` ` ` @...( )  .F.K.H.H.H.L.` m F ` ` ` 1.a.",
"w.w.w.w.g.BX-X-X].~.CXAXAXNXNXcXiX5X5X9XCX,X'.].*X=X&XtXsXnXnXlXyX%XR.J.T.`.$X8XhX7X.X'.'.'.I.S.D.U./.{.{./.Q.L.` F G ` _ _ c.u.",
"w.w.w.w.g.BX-XfXhX.X0XSXNXNXNXbXbXbXhXhXhXhXdXqXqXqXpXkXnXnXlXlXwX@XJ.J.T.(.%X4XrX4X4X=X*XOX(.(.OX$X<X1X#X).H.G.@.G G Z.Z.Z.c.M.",
"w.w.w.w.g.BX;XfXZX7X0XSXNXNXNXbXnXNXbXbXmXkXkXsXjXzXMXMXnXlXlXlXrXoXJ.J.T.(.%XqXrXyXyXuXrXrXqXqX2X2X2X<X@X).U.G.@.G B _ Z.L.L.N.",
"*.=.=.=.<.!.-XZXdX3X0XSXNXmXbXlXlXnXlXlXlXlXsXlXzXnXMXnXnXnXlXlXwXOXR.J.J.(.OX&XrXyXuXuXuXuXrXqXqX4X&X@X]./.H.G.` ` B _ Z.L.L.N.",
"*.*.*.*.:.m.7XfXrX*X9XAXNXNXbXxXlXlXlXlXsXlXlXlXnXMXnXbXlXnXlXsXeX%X(.H.S.H.(.4XtXyXaXuXuXeXeXqX&X&X@X}._.T.G.A.L.G _ Z.L.L.c.1.",
"*.*.*.*.:.N.CXZXrX%X8XAXNXNXvXSXxXxXMXMXnXnXlXlXlXsXsXlXMXMXxXsXeX&XR.T.S.H.H.oXqXaXuXuXuXeXeXqX&X@X}.)./.I.S.A.` G _ Z.L.c.1.-.",
"=.=.=.=.=.l.>XZXfX*X3XcXAXvXvXzXxXMXMXxXlXlXsXuXeXuXsXsXgXkXjXyX1XoXH.Z.A.H.S.J.&XuXuXuXuXeXwX1X%X(././.I.L.A.` ` F G L.` 1.:.*.",
"w.w.w.w.w.g.VXCXAX*X[.9XAXAXvXkXkXmXxXlXsXuXeXwXuXjXzXdXtXiXiX5X@XH.( B B  .H.(.<XwXuXeXeXwX2X%X@X)./.G.F.%.O.^ M 4 ^ c.1.-.*.*.",
"w.w.w.w.w.t.g.VXCX>X!.[.9X0XAXhXhXgXgXaXuXeXwXiXkXkXiX5X#X|.@X$X#XQ.F.( ( +.I.}.5X4XwXwXwX2X1X$X}./.I.F.@...E D r h 3.p.;.*.*.*.",
"w.w.w.w.w.w.t.V. XC.v.b.^.7X9X0XdXhXiXwXeXwX6XiX5X|./.U.H.H.J.].5X*X/.A. ._  .D.K._.|.<X1X<X<X#X{./.G.O.} J m r 2 >.0.9.*.*.*.*.",
"e.w.w.w.w.w.w.y.s.x.{ c.b.^..X3X5X6XwXiXwX<X_.K.Q.{.#X*X*X*X-XrXrXrX=XOX]./.~.I.%.+.+.D.K.K._.{.Q.D...S M u 7 - f 2.0.9.*.*.*.*.",
"r.w.w.w.w.w.w.w.t.Q { { o.b.~.'.[.<X6XiX2X_.D. .H.|.=X=X=X=X+X+X+XXXXXR.R.T.Y.L.+. .D.G.+.D.Q.W.%.] Z q 0 7 , : c 0.d.9.*.*.*.*.",
"r.w.w.w.w.w.w.w.t.h Q U W o.E.E.~.{.<X5X5X_.D.D.{.5XrXrXrX;X;X;X;X;X+XoXXXR.R.J.K.K.`._.K.K.~.P.} C q 0 7 7 $ , z.C.V.i.;.*.*.*.",
"g.w.w.w.w.w.w.w.w.w.u.! J { o.F.E./.|.1X<X,XK./.1XvXvXzXbXiX4X%X+X+XOXOXOXOX(.(._.<X<X_.K.Q.Q.%./ n 6 ; - & + 9 [ m.C.N.l.3.;.*.",
"t.w.w.w.w.w.w.w.w.y.a.x.L J { #.P.W.'.<X<X<X_.<XiXiXvXvX6X5X}./.H.F.D.K./._.`.`.<X<X`._.K.D.O.) A t 3 < = + O w ] ] { #.v.v.x.6.",
"w.w.w.w.w.w.w.w.w.w.d.7.[ V J { #.b.W.{.{.`.`.<XiXbXvXvXiX<X{.Q.+.O. .+.K.`.,X<X_._.K.D.+.} E N q 0 , & @ + * C R } } } } $.m.m.",
"w.w.w.w.w.w.w.w.w.w.d.i.l.z j K ^ ^ o.W.~.[.,X5X6XvXvXbXvX6X<X/.I.G.D.D.I./././.K.+.D.| R Z M q 3 * @ o + 6 n R / } / } } } #.v.",
"w.w.w.w.w.w.w.w.w.w.w.q.a.6.I k h j P o.E.W.Q.|.7X6X6X9X5X3X|.'.Q.P.F.F.P.F.+. .} T S C e 7 5 = & @ . X - N S } / } / } / } ] #.",
"w.w.w.w.q.q.w.w.q.q.q.q.q.i.z.[ D j D P { o.%.E.'.^.'.[.^.Q.P.F.+. .O.$.O.} T Z b w 5 5 = O . . . X o * q S R R S / ' S S ' ' [ ",
"=.=.=.=.*.*.=.=.=.=.=.=.d 2.k.n.o.W u 0 u U ! ^ o.o.o.@.%.c.O.} T R ] E J M e < - , @ + . . .   X . * q A S S T S ' T T T S Y J ",
"*.*.*.*.*.*.*.*.*.=.*.*.=.3.k.:X^.%.X.J t y g g g j D L P U P H u V V M q 0 < = + + . .   X + + & 0 n Z S A A A A Z C C C n Z V ",
"*.*.*.*.*.*.*.*.d =.*.*.*.2.x.:X>X^.E.n.X.' H u u r r y 0 y 8 7 0 0 < < 7 : @ + + + . o . & * 0 m N N A A A V V V n n n n n n q ",
"=.=.=.=.=.=.=.=.2.d 2.*.*.d k.^.:X^.^.E.E.b.$.} R C i u e 0 7 8 2 2 - , , @ + + + @ & - 3 q q m M M N n n n M e n Z C ' ' ' R V ",
"w.q.q.q.q.q.q.w.w.q.d.0.c v I v.^.^.^.E.E.n.n.$.#.#.#.$.#.#.{ ' U K i u 0 7 0 0 q q e q q t t t m e b n n n n C ' ' | | | #.| ' ",
"w.q.q.q.w.q.w.t.y.g.p.6.z k u C $.E.!.E.n.n.$.#.#.#.#.n.b.n.n.b.#.{ K H V V C Y Y N M m t 0 0 w e w w w w C S | | X.| | #.| | ' ",
"w.w.w.w.w.q.t.d.g.B.k.L u e e e Z ] %.n.n.n.$.#.X.X.| X.X.X.#.{ ' I k y y i J Z N N m q 3 3 0 3 0 6 3 e C ' | | | | | | | | | [ ",
"w.w.w.w.w.w.y.g.z.j.k w e e e u M n J ' X.#.#.#.' ' ' K U K K H k g h l l I U Y N M m 0 0 3 < < < - e C ' ' | ' ' ' ' ' | ' [ k.",
"w.w.w.w.d.f.s.x.[ H M M M M V V A A Y Y K W W ' ' ' K H V k V u y l 3.0.i.7.[ J N M q 0 < - , - - w H ' ' ' ' ' ' K ' K ' [ h.p.",
"w.w.w.w.d.V.B.j.U Z Z Z S K T R T R R ] R W C M w y u e u w 0 7 y :.0.d.e.i.4.H M m w < - = = & < u K K ' K K K K K K K [ l.p.f.",
"w.w.w.y.V.C.N.{ T T T R R ] R R R / } R ] } R K i 5 - & = & & & % =.9.w.q.i.h.L M e 3 < = & & & 0 i J K V C K k i i I h.z.g.f.d.",
"w.w.w.a.C.C.x.' T R R R R R R R ) R / } R R ] R K 0 - & @ @ + @ s >.0.w.d.i.l.I u q 5 = O O O 5 0 V i i i i i i i [ h.M.a.w.w.w.",
"w.w.q.f.M.x.{ Y Y T S Y T R Y / ( E ( / / / } S C 0 = & @ @ + % 4.M.g.w.w.s.z.[ i 9 5 = O O O 5 y y w w i w i k 4.7.i.f.d.w.w.w.",
"w.w.w.d.p.[ J C N Z A A Y Y Y R R R R / / / S S n 5 & @ @ @ 1 v x.d.f.d.w.e.i.4.l w , @ O O O 5 w w 9 9 9 l >.5.0.w.e.w.w.w.w.w.",
"w.w.q.e.i.v D M N M Z Z Z A Y T R R T R S S S A w * O O @ f h.q.q.f.w.w.w.w.f.7.v 9 , + O @ 5 9 5 9 w l >.5.0.q.w.w.w.w.w.w.w.w.",
"q.q.q.e.5.v u e q n M M N N A A A S S Y S S S N 6 & O % f 4.w.w.f.w.w.w.w.d.r.a.7.v s   O @ 7 9 l v 3.7.0.e.q.d.w.w.w.w.w.w.w.w.",
"*.=.=.=.c l u u q t e u M V Z V Z A A Y Y J C m - @ % f c >.2.;.=.=.=.=.=.=.=.;.2.3.l s s d c v l.7.3.2.=.=.=.=.=.=.=.=.=.=.=.=.",
"*.*.*.:.h.j.I q 0 r e e e m M M N V N N H j u y g v 4.:.&.*.*.*.*.*.*.*.*.*.*.*.d 2.2.d *.d &.&.3.d 2.d &.&.=.&.=.=.=.=.=.*.*.=.",
"*.*.*.3.C.C.k.h 0 0 0 0 0 e e u m n u u e g l h.*.*.&.-.*.*.*.*.*.*.*.*.*.*.*.*.*.*.*.*.*.*.*.*.*.*.d *.&.=.&.=.=.&.=.&.=.&.&.&.",
"*.*.*.3.z.C.m.[ r < < < < 2 0 0 3 0 y l Q k.x.*.=.*.3.*.*.*.*.*.*.*.*.*.*.*.*.*.*.*.*.*.*.*.*.*.*.*.*.*.&.=.&.&.&.=.&.=.&.*.&.&."
};
