/* XPM */
static char *_e3e4f337085497a9de6c3ddbbfaf9d56HyghlImmioWza6h[] = {
/* columns rows colors chars-per-pixel */
"64 64 246 2 ",
"   c #0E0C0D",
".  c #140D0C",
"X  c #190E0B",
"o  c #1B1206",
"O  c #15110B",
"+  c #1C130C",
"@  c #160D11",
"#  c #1C1313",
"$  c #1A1718",
"%  c #23150C",
"&  c #29160D",
"*  c #24180E",
"=  c #2A1C0D",
"-  c #321E0F",
";  c #221613",
":  c #261517",
">  c #241A14",
",  c #2B1C13",
"<  c #251B1A",
"1  c #2A1D1A",
"2  c #321D14",
"3  c #331C18",
"4  c #33210E",
"5  c #2D2114",
"6  c #2C221B",
"7  c #332315",
"8  c #3A2515",
"9  c #352916",
"0  c #3C2915",
"q  c #33251B",
"w  c #3B251A",
"e  c #34291D",
"r  c #3C2A1B",
"t  c #3F321E",
"y  c #1C1C23",
"u  c #251C22",
"i  c #1B252A",
"p  c #1B2D37",
"a  c #292627",
"s  c #342B23",
"d  c #352927",
"f  c #3B2C23",
"g  c #3E3125",
"h  c #36322D",
"j  c #3C322B",
"k  c #2D2B34",
"l  c #2A3439",
"z  c #3A393A",
"x  c #432C16",
"c  c #43261B",
"v  c #432C1B",
"b  c #4A2D1C",
"n  c #57291B",
"m  c #44321E",
"M  c #4C321D",
"N  c #4B391F",
"B  c #52351F",
"V  c #55391E",
"C  c #422E22",
"Z  c #472B26",
"A  c #562E24",
"S  c #443324",
"D  c #4B3423",
"F  c #4C3A23",
"G  c #45352A",
"H  c #4A362A",
"J  c #45382A",
"K  c #4D3A2B",
"L  c #533521",
"P  c #583326",
"I  c #553B23",
"U  c #5B3C24",
"Y  c #533D2A",
"T  c #5B3C2A",
"R  c #443A34",
"E  c #4C3C31",
"W  c #523D31",
"Q  c #593C32",
"!  c #613D26",
"~  c #683827",
"^  c #643D2A",
"/  c #723927",
"(  c #683A32",
")  c #584327",
"_  c #5B432A",
"`  c #4A423B",
"'  c #554135",
"]  c #5A4537",
"[  c #5E503C",
"{  c #664125",
"}  c #64432B",
"|  c #6B472E",
" . c #634A2C",
".. c #76452D",
"X. c #6C4333",
"o. c #634D33",
"O. c #684837",
"+. c #734934",
"@. c #7B4B34",
"#. c #774838",
"$. c #695439",
"%. c #79543B",
"&. c #0A3745",
"*. c #083847",
"=. c #083A49",
"-. c #173946",
";. c #1C3C4A",
":. c #253A46",
">. c #373D45",
",. c #2F3F51",
"<. c #483E43",
"1. c #1A4657",
"2. c #2A424D",
"3. c #3A434A",
"4. c #284756",
"5. c #384C59",
"6. c #3C525C",
"7. c #164D63",
"8. c #0C546B",
"9. c #17566C",
"0. c #0E5E77",
"q. c #0E5F78",
"w. c #135D76",
"e. c #1B5D74",
"r. c #125F78",
"t. c #1D5F78",
"y. c #3A4C60",
"u. c #285669",
"i. c #395768",
"p. c #265D73",
"a. c #355D72",
"s. c #166078",
"d. c #1B6078",
"f. c #276178",
"g. c #376377",
"h. c #464749",
"j. c #574A47",
"k. c #55514C",
"l. c #4A4C52",
"z. c #4B545A",
"x. c #585757",
"c. c #684948",
"v. c #6B554D",
"b. c #775944",
"n. c #75614E",
"m. c #475B6A",
"M. c #5A5E64",
"N. c #476778",
"B. c #586971",
"V. c #686767",
"C. c #6F7375",
"Z. c #803F2D",
"A. c #844B37",
"S. c #8D4934",
"D. c #875536",
"F. c #85533B",
"G. c #8B553C",
"H. c #97573B",
"J. c #A55A3C",
"K. c #9A633F",
"L. c #834C43",
"P. c #895A45",
"I. c #945B42",
"U. c #9B5D43",
"Y. c #9B5A48",
"T. c #A85A41",
"R. c #B75744",
"E. c #8A684A",
"W. c #9B6447",
"Q. c #93634A",
"!. c #8C6E56",
"~. c #9B6A51",
"^. c #987758",
"/. c #A76749",
"(. c #B6684A",
"). c #B36B4C",
"_. c #AE714A",
"`. c #B6764D",
"'. c #A86B54",
"]. c #B96D54",
"[. c #A87356",
"{. c #B37353",
"}. c #BC7355",
"|. c #BA7859",
" X c #92746E",
".X c #B27C63",
"XX c #C55B47",
"oX c #C7684E",
"OX c #C56C54",
"+X c #D96B59",
"@X c #C67657",
"#X c #C37B5B",
"$X c #CB7C5B",
"%X c #D27B5C",
"&X c #D7785C",
"*X c #C87C62",
"=X c #D77B61",
"-X c #D47B70",
";X c #E87665",
":X c #BB8267",
">X c #B1876E",
",X c #CC825C",
"<X c #D4835C",
"1X c #DB855E",
"2X c #C88667",
"3X c #DC8463",
"4X c #D58866",
"5X c #D9936D",
"6X c #D08B73",
"7X c #CA9375",
"8X c #D89676",
"9X c #E38464",
"0X c #E58B65",
"qX c #EB8B65",
"wX c #E78668",
"eX c #E58C6B",
"rX c #EC8C6A",
"tX c #F38E6A",
"yX c #E6946A",
"uX c #EB936D",
"iX c #F4946D",
"pX c #E68E72",
"aX c #F08E77",
"sX c #EC9472",
"dX c #E79876",
"fX c #F39572",
"gX c #F39B74",
"hX c #FA9D74",
"jX c #F69978",
"kX c #FB9D79",
"lX c #DCA17D",
"zX c #E9A479",
"xX c #F4A375",
"cX c #FAA276",
"vX c #F5A37B",
"bX c #FBA17B",
"nX c #F3AB7B",
"mX c #637580",
"MX c #907B82",
"NX c #7D8A90",
"BX c #8E898A",
"VX c #B49180",
"CX c #CB9B8A",
"ZX c #EA9F81",
"AX c #E8A882",
"SX c #F4A782",
/* pixels */
"q.q.q.q.q.q.q.q.q.q.q.q.q.q.q.q.q.q.q.q.r.q.w.w.w.u.7.4.,.>.l 3.h.E j h d d Z h R z >.y.u.w.w.w.0.w.0.q.q.q.q.q.q.q.q.8.*.*.*.*.",
"q.q.q.q.q.q.q.q.q.q.q.q.q.q.q.q.q.q.r.e.p.i.i.5.,.l k a s j R E Q ] H Z j d d d d k k >.,.y.m.u.e.w.r.q.q.q.q.q.q.q.q.8.*.*.*.*.",
"q.q.q.q.q.q.q.q.q.q.q.q.q.q.q.q.s.e.u.5.h.j.W G f g f e e f H ' E G f q 3 : : : ; : < < u k k >.,.,.p.e.0.q.q.q.q.q.q.8.*.*.*.*.",
"q.q.q.q.q.q.q.q.q.q.q.q.q.r.p.f.i.l.z j d f f w g G G G j q s s d s : 1 < ; : @ # # # # @ $ : u u k :.u.w.q.q.q.q.q.q.8.*.*.*.*.",
"q.q.q.q.q.q.q.q.q.0.q.q.e.u.i.z.k.' K G H Y H K ' K J g s 9 6 1 1 : < < < ; + . . . . . . X @ # : : a :.7.0.0.q.q.q.q.8.*.*.*.*.",
"q.q.q.q.q.q.q.q.q.w.0.9.4.3.H ] ] ' ] ] Q W E E ' ` J h s s 6 < # < a d s a 1 ; # # O . . X @ @ @ @ $ y -.7.w.w.q.q.q.8.*.*.*.*.",
"q.q.q.q.q.q.q.s.9.1.-.p a 6 f G g G J f s 6 e e e e 6 6 $ # ; > < < 1 f G Z q 1 : # # @ . . .   @ @ @ @ $ p ,.9.0.q.q.8.*.*.*.*.",
"q.q.q.q.q.q.r.9.1.a < $ > < > < 6 6 5 > # # # + + # $ + ; < 6 1 q 3 1 3 j Z s < ; # # @ @ .   . @     @ @ @ i 4.w.q.q.8.*.*.*.*.",
"0.0.r.r.0.p.i.5.l 6 6 6 6 5 6 e f s q 1 6 q 1 > > > > < 1 6 1 1 d f f q : 1 < # # @ # @ @ X .         . . @ $ :.9.w.0.8.*.*.*.*.",
"q.w.w.w.w.e.y.>.a 6 g j s s J ` S C C r f C r q 5 < 9 s s q q s 6 1 1 d 1 # o X + # # # # X X     @ @ @ @   @ -.u.w.0.8.*.*.*.*.",
"w.e.4.:.;.1.4.R g g E R t g J K C D D D Y H C w , 5 f g f e q q , : ; $ $ # X % & & 2 3 , & : % @ ; @ @ @ . @ :.u.0.0.8.*.*.*.*.",
"0.w.u.4.:.l R E J J K J g G J g f H H E E S s q , q G G S r w 2 2 & & & 2 3 c P ( #.A.@...~ ! P A c c 3 @ . $ -.9.0.0.8.*.*.*.*.",
"*.*.*.-.-.R Q Q H f f f g E R f r C G G f q 3 3 q f S Z v c c c n n A ~ ~ A.I.'.#X*X,X@X_./.U.Y.L.F.O.Q w < : y i -.-.&.*.*.*.*.",
":.-.-.-.l j R H G C G G H E J q C C H E f w 3 Z P X.+.X.( / @.G.Y./.).].@X,X4XyXsXaXeX3X*X#X$X|.].'.P.#.Y w < # @ k :.&.*.*.*.*.",
"l l l a 6 q r C G H S C C H G C W Q Y C w 3 A ( P.[..X/.'.].#X3XeXpXdXyXuXsXgXgXsXuXqX0X&X$X<X$X|.{.W.L.^ Z 3 : @ u :.&.*.*.*.*.",
"-.-.p a e 9 f H K S S C S H G Y ] ] H c c A c.Y.].OX].@X3XeXsXgXjXjXhXgXgXgXgXuXuXqX0X1X1X1X<X<X$X)./.P...A 3 : : u p *.=.=.=.=.",
"r.w.9.4.h e G H H H C D Y E ] j.Q D v b n / H.).].OX<XyXsXxXvXvXcXvXhXgXgXgXgXsXyXyXyX0X1X1X1X<X@X)./.G.#.~ c 3 : > :.u.w.0.0.0.",
"r.w.i.>.s e G H H Y Y ' ] O.W D C c c A ~ A.T.@X3XsXjXxXkXxXbXkXkXxXhXhXgXgXgXdXiXyXyX0X1X1X<X<X@X(./.G.@.( Z q 1 : d 5.p.w.q.q.",
"q.e.y.>.s e g S E ' ] ] ] H c w b L ~ #.I.|.2XpXhXkXSXvXSXbXkXkXkXkXkXgXhXgXgXgXuXyX5X5X5X<X$X@X`.T.H.D./ ( Z w 3 , 6 h.m.t.q.q.",
"q.r.e.5.z s g g E E G C f w c T #.F.W.|.2XdXjXSXSXbXSXvXkXkXkXkXjXkXjXfXfXiXaXaXpXyX5X4X5X,X#X}./.U.H.D.b.#.P c 2 : u 3.N.p.q.q.",
"q.q.e.y.l j E j f f s q w D ( %.P.'.|.2X6X8X6X5X5X5XpXdXjXhXhXjXfXfXpXwX=X=X*X{.'.W.P.G.G.G.G.P.P.G.F.F.F.b.#.H 3 : u ,.a.t.q.q.",
"q.q.r.i.z s J R f q q v D } b.E.Q.~.~.~.Q.Y.I.U./.{.$X3XeXiXfXiXrXrX3X=X]./.U.D.D.@.G.P.E.F.+.} ~ ~ / #.A.S.A.X.c : u :.e.q.q.q.",
"q.q.t.a.l.j r j j Z Q O.+.P.[.[.[.|.:X7X:X2X:X.X#X$X4X1X0XuXhXgXuX9X=X(.T.(.].}.|.#X2X2X:X{.~.P.#.X.~ | #.A.L.#.A 3 u >.m.a.t.q.",
"q.q.t.N.z.j v C C Q [.>X.X2X7X7X6X8X8X8X7X:X{././.].@X3XyXfXcXcXkXwXOXH.Y.}.#X#X*X|.'.~./.W.G.A.%.X.X.+.@.F.G.%.( 3 u Z c.x.m.t.",
"q.q.q.p.m.c.L.!.c.b.VXZXlXlXzXlXdX4X:X:X.XP.( ( W.].oX1XuXxXcXcXfX9X(.H.J.{.}.2X6X~.X.P ( b.X./ ~ ..G.I.U.H.G.F.( 3 Z ( ( ( <.u.",
"q.q.q.q.N.MX-X-X].~.CXZXnXnXnXzXyX1X4X7XCX:X'.'.*X=X&XeXiXxXcXhXrX%X(.J.J.].*X4XpX6X.X'.'.'.U.A.H.K./.{.{./.U.L.( Z A ( / / c.a.",
"q.q.q.q.g.MX-XaXdX.X6XSXnXnXnXxXxXxXzXdXdXdXeX9X;X9XuXgXhXcXhXhXqXOXJ.J.T.(.&X3X9X3X-X4X+X@X).(.}.@X,X,X$X).T.F.( n ~ / Z.Z.c.m.",
"q.q.q.q.a.MX;XaXZX2X8XSXnXnXnXcXcXxXxXxXxXxXgXiXgXhXkXvXcXcXhXhX0XoXJ.J.T.(.$XwXwXrXtXtXwXwX9X=X1X3X<X,X@X).U.G.L.A n / Z.L.L.M.",
"=.=.=.=.2.!.-XZXaX2X8XSXvXnXxXhXcXcXhXhXhXhXiXhXhXvXbXcXcXcXhXiXqXoXT.J.J.(.OX&XqXrXtXtXtXqXqX9X9X1X&X@X]./.H.G.Z.( n / Z.S.L.M.",
"*.*.*.*.:.V.6XaXwX#X8XAXnXnXvXvXcXhXhXhXhXhXhXhXcXbXcXcXkXcXhXhXqX&X(.J.S.H.(.3XeXrXtXtXtXqXqX9X&X&X@X}./.T.G.A.( A / Z.L.L.c.<.",
"*.*.*.*.;.x.CXZXwX$X6XAXAXnXnXvXkXkXbXbXhXcXhXhXhXiXiXxXvXkXbXiXqX&XR.Y.H.H.J.].9XrXtXtXtXtXqX9X&XOX}.)./.I.L.L.( ( / Z.L.c.,.:.",
"=.=.=.=.=.l.VXZXaX*X2XlXAXnXdXdXkXkXbXkXhXhXiXtXqXtXiXiXsXgXfXrX&XoXH.Z.S.S.S.J.%XtXtXtXtXqX9X1X%X]././.Y.A.A.#.A Z A L.( <.:.*.",
"q.q.q.q.q.g.BXCXZX.X.X7XAXAXzXdXjXxXkXkXiXtXqX0XtXfXfXrXeXpXyX4X}.H.~ n n ..H.(.,XqXqXqXqX0X1X<X@X).U.P.F.%.X.T v w Q c.<.;.*.*.",
"q.q.q.q.q.d.N.BXCX>X!.[.7XlXZXdXdXsXuXuXtXqX0XyXgXxXeX4X#X|.#X#X:X/.F.( ~ @.I.`.1X1XyXqX0X1X<X$X}./.I.F.+.X.T Z q a 2.y.=.=.*.*.",
"q.q.q.q.q.q.s.N.MX Xb.L.^.2X8X8XdXdXyXqXqX0X5XyX2X,X'.W.H.H.T.].<X#X/.S.../ ..D.K._.:X,X,X,X,X#X_./.G.+.} L v q : l u.8.*.*.*.*.",
"q.q.q.q.q.q.s.d.f.mXx.O.n.^..X2X4X5X0X0XyX,X_.K.W._.|.*X$X*X3X;XeXwX=XOX].'.W.I.%...@.F.H.K.`.{.W.G.| I v w 6 = > q 0.8.*.*.*.*.",
"q.q.q.q.q.q.r.d.f.N.m.W ] b.~.~.[.,X4XyX4X_.D...I.@X=X=X=X+X=X+X+XXXXXR.R.T.Y.L.....D.F.@.D.Q.Q.%.} M 0 7 5 > # % 2 0.8.*.*.*.*.",
"q.q.q.q.s.g.N.mXBXBXV.' Y #.E.E.~.{.,X4X,X_.D.D._.4XeXwXwX;X;X;X;X;X+X+XXXR.R.J.K.K.`._.K.K.~.F.{ M 8 4 5 5 % # , w q.8.*.*.*.*.",
"q.q.s.f.N.B.V.V.n.n.c.E D ] +.%.E./.:X,X<X,XK._.<XdXdXZXzXuX3X=X+XOXOXOXOX}.(.(.,X,X,X_.K./.~.%.! x 4 - = * + 5 ` V.q.8.*.*.*.*.",
"r.g.B.V.v.$.o.} } { _ K G G W %.P.W._.#X:X,X_.,XyXiXzXzXyX2X}./.H.G.D.G./.`.`.`.`.,X`._.K.D.@.~ D c 2 1 % O + 3.C.NXq.8.*.*.*.*.",
"g.mXC.b. .{ { { { { ! ) H C D ] $.L.Q.[.|._.`.,XyXzXxXyXyX4X`.K.A.@...@.K.`.`.:X_._.K.D.@.{ I b 0 7 , # $ O i 1.9.s.q.8.*.*.*.*.",
"g.M.c.} { { { { { ! { ! ) M f G W ' O.Q.~.{.,X4X5XzXzXzXzX5X2X/.H.G.D.D.Q./._./.K.D.@.| ) N v 8 - * + o   i 1.8.q.q.q.8.*.*.*.*.",
"M.j._ { T { ! } ! ! ! ! U N S d s f K O.E.Q.Q.|.6X5X4X5X4X2X|.'.W.G.F.F.G.G.@...{ ) V N 9 9 = * + o O . p 1.0.0.q.q.q.8.*.*.*.*.",
"l.' ) U U U U U ! ) V U U I ) J C f C H ' O.%.E.^.[.[.[.^.W.P.D.%.@.| $.+.} I M x 9 4 = o o o O . . O $ 1.8.0.0.q.0.0.8.*.*.*.*.",
"R M N V I V I ) U I V I L L T _ Q H v q s G W Q O.O.O.c.b.%.+.^ I U T Y D v 9 , * % + O O O     O + 6 a -.*.*.*.=.=.=.=.*.*.*.*.",
"h m b x b M M M M B V B V L L ~ X.} P D w e s f f f S S Z H H S r v m v 8 2 5 # + O O .   . O 6 J [ h.-.*.*.*.*.*.*.*.*.*.*.*.*.",
"h 0 x x x x x x v S M M M b M D L T T P m v r r q q 7 q q q 5 q 7 7 , 5 5 % + O O . X o o 9 ) b.!.>Xx.2.*.*.*.*.*.*.*.*.*.*.*.*.",
"d m ) ) ) ) N m x x x x M x v v v x x x v v b M M v 0 9 q 7 5 5 , 1 , > 1 % + + + > 7 m  .%.E.^.>X!.k.-.=.=.=.=.=.=.=.=.=.=.=.=.",
"3.K  .o.o. .o. .) N 0 0 0 0 x 0 0 0 w w w c x b B L m m m F J ) J ) J ) K J F F N  .$.b.n.E.E.>Xn.n.` 4.u.9.s.q.q.q.0.0.0.0.0.0.",
"3.'  . . .o. .o. .) V N 0 0 4 0 8 8 7 8 8 0 v b B B D m t S F ] $.$.n.b.b.$.$.$.$.$.$.b.K.E.E.E.$.N t t R 6.i.g.d.s.q.q.q.q.q.q.",
"z.`  . .o. . .)  . . .) N 0 4 4 7 2 7 2 3 w c b M D M r t e g F ' ] o.o.o.o.] ] o.$.$.b.n.n.%._ N 0 9 0 r R k.B.g.d.s.q.q.q.q.q.",
"g.z.' _ ) ) ) ) ) )  .) ) N 0 4 , , , , 2 8 0 v M L F R h a s f t F H J J ) ) _  .o.$.$.o.) M v x 0 0 9 9 0 G ` z.a.d.s.q.q.q.q.",
"f.i.l.' ) ) ) N N ) F ) ) ) N 4 = , , , = 7 9 v b D h.6.9.4.2.l e t t g S S F F ) ) ) N I L L B M M m v x x v G ` z.N.d.q.q.q.q.",
"s.f.i.l.` g ) F N N N ) ) N F 9 = % % * , 2 7 0 v S h.u.s.q.9.-.6 5 5 9 9 0 0 0 9 t N ) _ U U U U I I I L M M M ) k.M.N.d.q.q.q.",
"q.q.f.a.6.` h t N N N N N N N t 7 % % % * = 9 9 v G h.u.s.0.8.-.$ % # * * & = 4 0 N N  .^ _ ! ! ) U U T U U I L J ' x.C.N.f.q.q.",
"q.q.q.s.f.m.l.R h t t t t t t t 7 = o o o * 4 9 v R h.u.r.0.9.2.i + + o % % = 7 F ) ) ) U ! ! ! ! U U U ) U U U I I v.C.C.f.q.q.",
"q.q.q.q.s.f.p.5.3.h t 9 9 9 t 9 9 = o o o o = 9 t ` z.a.s.s.f.m.` $ + + + % * 7 b V { { { U ~ U ~ U U I I L L V V L T x.m.d.s.q.",
"q.q.q.q.0.0.0.0.p.4.:.t 9 9 9 9 9 = * o o * > 9 g 3.u.w.s.s.f.q.m.z $ + + % % 4 x V U U V ! ! ! U I L L L B B M M M D h.i.d.q.q.",
"q.q.0.0.0.0.q.q.q.w.9.2.h s 9 5 5 5 = o o o > a z 6.p.s.0.0.q.f.s.q.3.a + o o = 0 M V U { U V U I L V B B b b b v v m z u.w.q.q.",
"0.0.0.0.0.0.q.q.q.q.w.8.-.l z l h e 6 > + $ 6 z 6.p.s.0.0.0.0.0.f.q.q.3.a + o o 4 x B I V V V L V B M M b b v x 0 0 r z 4.w.0.0.",
"1.=.=.=.1.p 1.=.p 1.1.=.=.&.2.l.l.>.l p i i z 3.2.=.=.=.=.=.=.=.p 1.1.2.l i $ + , x D D L L B B M M M v v x r r 8 8 r j l -.*.*.",
"p =.*.*.*.*.p =.1.*.p *.*.*.=.-.-.-.&.p *.*.=.-.*.*.*.*.*.*.=.*.=.*.p *.1.p 3.z d w w C C v b M b v v r r r 8 7 7 0 G [ 3.1.*.*.",
"*.*.*.*.*.*.*.*.p 1.*.*.*.&.=.=.*.*.*.*.*.*.*.*.*.*.*.*.*.*.*.*.=.*.*.*.*.-.1.p *.h.h f r r x 0 0 r r w 7 7 7 5 7 f j.C.V.2.*.*.",
"*.*.*.*.*.*.*.*.*.p *.*.*.=.&.&.*.*.*.*.*.*.*.*.*.*.*.*.*.*.*.*.*.*.*.*.*.*.1.=.*.=.x.l.R j q 7 7 2 7 5 , , * , s ` V.V.z.1.*.*."
};
