/* XPM */
static char *result[] = {
/* columns rows colors chars-per-pixel */
"64 64 24 1 ",
"  c #083847",
". c #083949",
"X c #083A49",
"o c #083B4B",
"O c #083C4D",
"+ c #083D4D",
"@ c #093E4E",
"# c #093E4F",
"$ c #094052",
"% c #094254",
"& c #0A4558",
"* c #0E5D76",
"= c #0E5E77",
"- c #0E5F78",
"; c #0E6079",
": c #0E617A",
"> c #0E627C",
", c #148AAF",
"< c #158AB0",
"1 c #158BB0",
"2 c #158BB1",
"3 c #158CB1",
"4 c #158CB2",
"5 c #158DB3",
/* pixels */
"###%35555555555555555555555555555552O   ###%3555555555555553%###",
"###%35555555555555555555555555555552O   ###%3555555555555553%###",
"###%35555555555555555555555555555552O   ###%3555555555555553%###",
"%%%&1444444444444444444444444444444<O   %%%&1444444444444441%###",
"3331>::::::::::::::::::::::::::::::;X  O,331>::::::::::::::;X   ",
"5554:------------------------------=X  O2554:--------------=X   ",
"5554:------------------------------=X  O2554:--------------=X   ",
"5554:------------------------------=X  O2554:--------------=X   ",
"5554:------------------------------=X  O2554:--------------=X   ",
"5554:------------------------------=X  O2554:--------------=X   ",
"5554:------------------------------=X  O2554:--------------=X   ",
"5554:------------------------------=X  O2554:--------------=X   ",
"5554:------------------------------=X  O2554:--------------=X   ",
"5554:------------------------------=X  O2554:--------------=X   ",
"5554:------------------------------=X  O2554:--------------=X   ",
"5554:------------------------------=X  O2554;===-----------=X   ",
"5554:------------------------------=X  O2552@XXo=----------=X   ",
"5554:------------------------------=X  O2552O  X=----------=X   ",
"5554:------------------------------=X  O2552O  X=----------=X   ",
"5554:------------------------------=X  O,33,O  .*==========*.   ",
"5554:------------------------------=X   %%%%    .XXXXXXXXXX.    ",
"5554:------------------------------=X   ####                    ",
"5554:------------------------------=X   ####                    ",
"5554:------------------------------=X   %%%%+OOOOOOOOOOOOOOO    ",
"5554:------------------------------=X  O,333222222222222222,O   ",
"5554:------------------------------=X  O25555555555555555552O   ",
"5554:------------------------------=X  O25555555555555555552O   ",
"5554:------------------------------=X  O2555444444444444444<O   ",
"5554:------------------------------=X  O2554>::::::::::::::;X   ",
"5554:------------------------------=X  O2554:--------------=X   ",
"5554:------------------------------=X  O2554:--------------=X   ",
"5554:------------------------------=X  O2554:--------------=X   ",
"5554:------------------------------=X  O2554:--------------=X   ",
"5554:------------------------------=X  O2554:--------------=X   ",
"5554:------------------------------=X  O2554:--------------=X   ",
"5554:------------------------------=X  O2554:--------------=X   ",
"5554:------------------------------=X  O2554:--------------=X   ",
"5554:------------------------------=X  O2554:--------------=X   ",
"5554:------------------------------=X  O2554:--------------=X   ",
"222<;===------------------------===*@OO$<441:--------------=X   ",
"OOOOXXXo=----------------------=oXX@,22<>:::---------------=X   ",
"       X=----------------------=X  O2554:------------------=X   ",
"       X=----------------------=X  O2554:------------------=X   ",
"OOOOOOO@*=======---------------=X  O2554:------------------=X   ",
"2222222,@XXXXXXo=--------------=X  O2554:------------------=X   ",
"55555552O      X=--------------=X  O2554:------------------=X   ",
"55555552O      X=--------------=X  O2554:------------------=X   ",
"5555444<$OOOOOO@*==============*@OO$<441:------------------=X   ",
"5554>::><222222,@XXXXXXXXXXXXXX@,22<>:::-------------------=X   ",
"5554:--:45555552O              O2554:----------------------=X   ",
"5554:--:45555552O              O2554:----------------------=X   ",
"5554:--:1444444<$OOOOOOOOOOO   O2554:----------------------=X   ",
"5554:---:::::::><2222222222,O  O2554:----------------------=X   ",
"5554:----------:455555555552O  O2554:----------------------=X   ",
"5554:----------:455555555552O  O2554:----------------------=X   ",
"5554:----------:14444444444<O  O2554:-------------------===*.   ",
"5554:-----------:::::::::::;X  O2554:------------------=oXX.    ",
"5554:----------------------=X  O2554:------------------=X       ",
"5554:----------------------=X  O2554:------------------=X       ",
"3331;======================*X  +2554;==================*.       ",
"%%%%XXXXXXXXXXXXXXXXXXXXXXXX###%3552@XXXXXXXXXXXXXXXXXX.    ####",
"####                        ###%3552O                       ####",
"####                        ###%3552O                       ####",
"####                        ###%3552O                       ####"
};
