/* XPM */
static char *result[] = {
/* columns rows colors chars-per-pixel */
"64 64 6 1 ",
"  c #083847",
". c #083949",
"X c #083A49",
"o c #0E5D76",
"O c #0E5E77",
"+ c #0E5F78",
/* pixels */
"+++++++++++++++++++++++++++OX  XO++++++++++++++++++++++++++OX   ",
"+++++++++++++++++++++++++++OX  XO++++++++++++++++++++++++++OX   ",
"+++++++++++++++++++++++++++OX  XO++++++++++++++++++++++++++OX   ",
"+++++++++++++++++++++++++++OX  XO++++++++++++++++++++++++++OX   ",
"+++++++++++++++++++++++++++OX  XO++++++++++++++++++++++++++OX   ",
"+++++++++++++++++++++++++++OX  XO++++++++++++++++++++++++++OX   ",
"+++++++++++++++++++++++++++OX  XO++++++++++++++++++++++++++OX   ",
"+++++++++++++++++++++++++++OX  XO++++++++++++++++++++++++++OX   ",
"+++++++++++++++++++++++++++OX  XO++++++++++++++++++++++++++OX   ",
"+++++++++++++++++++++++++++OX  XO++++++++++++++++++++++++++OX   ",
"+++++++++++++++++++++++++++OX  XO++++++++++++++++++++++++++OX   ",
"OOOOOOOOOOOOOOOOOOOOOOOOOOOo.  .oOOOOOOOOOOOOOOOOOOOOOOOOOOo.   ",
"XXXXXXXXXXXXXXXXXXXXXXXXXXX.    .XXXXXXXXXXXXXXXXXXXXXXXXXX.    ",
"                                                                ",
"                                                                ",
"XXXXXXXXXXX.    .XXXXXXXXXXXXXXXXXXXXXXXXXX.    .XXXXXXXXXXXXXXX",
"OOOOOOOOOOOo.  .oOOOOOOOOOOOOOOOOOOOOOOOOOOo.  .oOOOOOOOOOOOOOOO",
"+++++++++++OX  XO++++++++++++++++++++++++++OX  XO+++++++++++++++",
"+++++++++++OX  XO++++++++++++++++++++++++++OX  XO+++++++++++++++",
"+++++++++++OX  XO++++++++++++++++++++++++++OX  XO+++++++++++++++",
"+++++++++++OX  XO++++++++++++++++++++++++++OX  XO+++++++++++++++",
"+++++++++++OX  XO++++++++++++++++++++++++++OX  XO+++++++++++++++",
"+++++++++++OX  XO++++++++++++++++++++++++++OX  XO+++++++++++++++",
"+++++++++++OX  XO++++++++++++++++++++++++++OX  XO+++++++++++++++",
"+++++++++++OX  XO++++++++++++++++++++++++++OX  XO+++++++++++++++",
"+++++++++++OX  XO++++++++++++++++++++++++++OX  XO+++++++++++++++",
"+++++++++++OX  XO++++++++++++++++++++++++++OX  XO+++++++++++++++",
"OOOOOOOOOOOo.  .oOOOOOOOOOOOOOOOOOOOOOOOOOOo.  .oOOOOOOOOOOOOOOO",
"XXXXXXXXXXX.    .XXXXXXXXXXXXXXXXXXXXXXXXXX.    .XXXXXXXXXXXXXXX",
"                                                                ",
"                                                                ",
"XXXXXXXXXXXXXXXXXXXXXXXXXXX.    .XXXXXXXXXXXXXXXXXXXXXXXXXX.    ",
"OOOOOOOOOOOOOOOOOOOOOOOOOOOo.  .oOOOOOOOOOOOOOOOOOOOOOOOOOOo.   ",
"+++++++++++++++++++++++++++OX  XO++++++++++++++++++++++++++OX   ",
"+++++++++++++++++++++++++++OX  XO++++++++++++++++++++++++++OX   ",
"+++++++++++++++++++++++++++OX  XO++++++++++++++++++++++++++OX   ",
"+++++++++++++++++++++++++++OX  XO++++++++++++++++++++++++++OX   ",
"+++++++++++++++++++++++++++OX  XO++++++++++++++++++++++++++OX   ",
"+++++++++++++++++++++++++++OX  XO++++++++++++++++++++++++++OX   ",
"+++++++++++++++++++++++++++OX  XO++++++++++++++++++++++++++OX   ",
"+++++++++++++++++++++++++++OX  XO++++++++++++++++++++++++++OX   ",
"+++++++++++++++++++++++++++OX  XO++++++++++++++++++++++++++OX   ",
"+++++++++++++++++++++++++++OX  XO++++++++++++++++++++++++++OX   ",
"OOOOOOOOOOOOOOOOOOOOOOOOOOOo.  .oOOOOOOOOOOOOOOOOOOOOOOOOOOo.   ",
"XXXXXXXXXXXXXXXXXXXXXXXXXXX.    .XXXXXXXXXXXXXXXXXXXXXXXXXX.    ",
"                                                                ",
"                                                                ",
"XXXXXXXXXXX.    .XXXXXXXXXXXXXXXXXXXXXXXXXX.    .XXXXXXXXXXXXXXX",
"OOOOOOOOOOOo.  .oOOOOOOOOOOOOOOOOOOOOOOOOOOo.  .oOOOOOOOOOOOOOOO",
"+++++++++++OX  XO++++++++++++++++++++++++++OX  XO+++++++++++++++",
"+++++++++++OX  XO++++++++++++++++++++++++++OX  XO+++++++++++++++",
"+++++++++++OX  XO++++++++++++++++++++++++++OX  XO+++++++++++++++",
"+++++++++++OX  XO++++++++++++++++++++++++++OX  XO+++++++++++++++",
"+++++++++++OX  XO++++++++++++++++++++++++++OX  XO+++++++++++++++",
"+++++++++++OX  XO++++++++++++++++++++++++++OX  XO+++++++++++++++",
"+++++++++++OX  XO++++++++++++++++++++++++++OX  XO+++++++++++++++",
"+++++++++++OX  XO++++++++++++++++++++++++++OX  XO+++++++++++++++",
"+++++++++++OX  XO++++++++++++++++++++++++++OX  XO+++++++++++++++",
"+++++++++++OX  XO++++++++++++++++++++++++++OX  XO+++++++++++++++",
"OOOOOOOOOOOo.  .oOOOOOOOOOOOOOOOOOOOOOOOOOOo.  .oOOOOOOOOOOOOOOO",
"XXXXXXXXXXX.    .XXXXXXXXXXXXXXXXXXXXXXXXXX.    .XXXXXXXXXXXXXXX",
"                                                                ",
"                                                                ",
"                                                                "
};
